<?xml version="1.0" encoding="UTF-8"?>
<svg xmlns="http://www.w3.org/2000/svg" xmlns:xlink="http://www.w3.org/1999/xlink" viewBox="0 0 144.91 146.08">
  <defs>
    <style>
      .cls-1 {
        fill: url(#_R_W_h_1323);
      }

      .cls-2 {
        fill: #f6c07a;
      }

      .cls-2, .cls-3 {
        opacity: .93;
      }

      .cls-4 {
        fill: #fce9d0;
      }

      .cls-4, .cls-5 {
        opacity: .59;
      }

      .cls-6 {
        fill: #6f5735;
      }

      .cls-6, .cls-7 {
        opacity: .85;
      }

      .cls-8 {
        fill: #ffdd92;
      }

      .cls-9 {
        fill: #f7c584;
      }

      .cls-9, .cls-10 {
        opacity: .89;
      }

      .cls-11 {
        fill: url(#_R_W_h_1324);
      }

      .cls-12 {
        fill: #fff;
      }

      .cls-12, .cls-13 {
        opacity: .4;
      }

      .cls-10 {
        fill: #785e39;
      }

      .cls-14 {
        fill: #fbe4c6;
      }

      .cls-14, .cls-15 {
        opacity: .62;
      }

      .cls-15 {
        fill: #382c1a;
      }

      .cls-16 {
        isolation: isolate;
      }

      .cls-17 {
        fill: #090704;
      }

      .cls-17, .cls-18 {
        opacity: .44;
      }

      .cls-19 {
        fill: #fdf2e3;
      }

      .cls-19, .cls-20 {
        opacity: .51;
      }

      .cls-3 {
        fill: #82663d;
      }

      .cls-21 {
        fill: #f6bc71;
      }

      .cls-21, .cls-22 {
        opacity: .96;
      }

      .cls-23 {
        fill: #f5b767;
      }

      .cls-24 {
        fill: #f9d7aa;
      }

      .cls-24, .cls-25 {
        opacity: .74;
      }

      .cls-5 {
        fill: #2e2416;
      }

      .cls-26 {
        fill: #f9d2a0;
      }

      .cls-26, .cls-27 {
        opacity: .78;
      }

      .cls-18 {
        fill: #fefbf6;
      }

      .cls-28 {
        clip-path: url(#clippath-1);
      }

      .cls-29 {
        fill: #fadbb3;
      }

      .cls-29, .cls-30 {
        opacity: .7;
      }

      .cls-31 {
        fill: #41331f;
      }

      .cls-31, .cls-32 {
        opacity: .66;
      }

      .cls-33 {
        fill: #fef6ec;
      }

      .cls-33, .cls-34 {
        opacity: .48;
      }

      .cls-35 {
        fill: #251d12;
      }

      .cls-35, .cls-36 {
        opacity: .55;
      }

      .cls-37 {
        fill: #f5d188;
      }

      .cls-38 {
        mix-blend-mode: screen;
      }

      .cls-22 {
        fill: #8b6d42;
      }

      .cls-20 {
        fill: #1c160d;
      }

      .cls-39 {
        fill: #ffc153;
      }

      .cls-36 {
        fill: #fdedd9;
      }

      .cls-40 {
        clip-path: url(#clippath);
      }

      .cls-41 {
        fill: none;
      }

      .cls-34 {
        fill: #130f09;
      }

      .cls-27 {
        fill: #5d492c;
      }

      .cls-7 {
        fill: #f8c98d;
      }

      .cls-42 {
        fill: #f8ce97;
      }

      .cls-42, .cls-43 {
        opacity: .81;
      }

      .cls-43 {
        fill: #665030;
      }

      .cls-44 {
        fill: #947446;
      }

      .cls-45 {
        fill: #ffab1a;
      }

      .cls-30 {
        fill: #4a3a23;
      }

      .cls-46 {
        mix-blend-mode: multiply;
      }

      .cls-32 {
        fill: #fbe0bd;
      }

      .cls-25 {
        fill: #534127;
      }
    </style>
    <clipPath id="clippath">
      <path id="SVGID" class="cls-41" d="m54.29,14.15l12.56-10.52c3.45-2.89,8.49-2.85,11.89.1l12.38,10.73c2.83,2.46,6.37,3.96,10.1,4.29l16.32,1.45c4.49.4,8.02,3.99,8.34,8.48l1.16,16.34c.27,3.74,1.7,7.3,4.11,10.17l10.52,12.56c2.89,3.45,2.85,8.49-.1,11.89l-10.73,12.38c-2.46,2.83-3.96,6.37-4.29,10.1l-1.45,16.32c-.4,4.48-3.99,8.02-8.48,8.34l-16.34,1.16c-3.74.27-7.3,1.7-10.17,4.11l-12.56,10.52c-3.45,2.89-8.49,2.85-11.89-.1l-12.38-10.73c-2.83-2.46-6.37-3.96-10.1-4.29l-16.32-1.45c-4.48-.4-8.02-3.99-8.34-8.48l-1.16-16.34c-.27-3.74-1.7-7.3-4.11-10.17l-10.52-12.56c-2.89-3.45-2.85-8.49.1-11.89l10.73-12.38c2.46-2.83,3.96-6.37,4.29-10.1l1.45-16.32c.4-4.48,3.99-8.02,8.48-8.34l16.34-1.16c3.74-.27,7.3-1.7,10.17-4.11Z"/>
    </clipPath>
    <linearGradient id="_R_W_h_1324" data-name="¥¼©R¦Wº¥¼h 1324" x1="229.48" y1="-231.58" x2="160.02" y2="-105.93" gradientTransform="translate(-45.65 306.47) rotate(-22)" gradientUnits="userSpaceOnUse">
      <stop offset="0" stop-color="#fff9e3"/>
      <stop offset="1" stop-color="#f5b767"/>
    </linearGradient>
    <clipPath id="clippath-1">
      <circle id="SVGID-2" data-name="SVGID" class="cls-41" cx="71.89" cy="71.87" r="49.62"/>
    </clipPath>
    <linearGradient id="_R_W_h_1323" data-name="¥¼©R¦Wº¥¼h 1323" x1="71.89" y1="23.91" x2="71.89" y2="119.77" gradientUnits="userSpaceOnUse">
      <stop offset="0" stop-color="#ffd461"/>
      <stop offset="1" stop-color="#ff9822"/>
    </linearGradient>
  </defs>
  <g class="cls-16">
    <g id="Capa_2" data-name="Capa 2">
      <g id="Main_1" data-name="Main 1">
        <g>
          <g>
            <path class="cls-37" d="m55.39,12.66l12.56-10.52c3.45-2.89,8.49-2.85,11.89.1l12.38,10.73c2.83,2.46,6.37,3.96,10.1,4.29l16.32,1.45c4.48.4,8.02,3.99,8.34,8.48l1.16,16.34c.27,3.74,1.7,7.3,4.11,10.17l10.52,12.56c2.89,3.45,2.85,8.49-.1,11.89l-10.73,12.38c-2.46,2.83-3.96,6.37-4.29,10.1l-1.45,16.32c-.4,4.48-3.99,8.02-8.48,8.34l-16.34,1.16c-3.74.27-7.3,1.7-10.17,4.11l-12.56,10.52c-3.45,2.89-8.49,2.85-11.89-.1l-12.38-10.73c-2.83-2.46-6.37-3.96-10.1-4.29l-16.32-1.45c-4.48-.4-8.02-3.99-8.34-8.48l-1.16-16.34c-.27-3.74-1.7-7.3-4.11-10.17l-10.52-12.56c-2.89-3.45-2.85-8.49.1-11.89l10.73-12.38c2.46-2.83,3.96-6.37,4.29-10.1l1.45-16.32c.4-4.48,3.99-8.02,8.48-8.34l16.34-1.16c3.74-.27,7.3-1.7,10.17-4.11Z"/>
            <path class="cls-8" d="m53.71,15.51l12.56-10.52c3.45-2.89,8.49-2.85,11.89.1l12.38,10.73c2.83,2.46,6.37,3.96,10.1,4.29l16.32,1.45c4.48.4,8.02,3.99,8.34,8.48l1.16,16.34c.27,3.74,1.7,7.3,4.11,10.17l10.52,12.56c2.89,3.45,2.85,8.49-.1,11.89l-10.73,12.38c-2.46,2.83-3.96,6.37-4.29,10.1l-1.45,16.32c-.4,4.49-3.99,8.02-8.48,8.34l-16.34,1.16c-3.74.27-7.3,1.7-10.17,4.11l-12.56,10.52c-3.45,2.89-8.49,2.85-11.89-.1l-12.38-10.73c-2.83-2.46-6.37-3.96-10.1-4.29l-16.32-1.45c-4.49-.4-8.02-3.99-8.34-8.48l-1.16-16.34c-.27-3.74-1.7-7.3-4.11-10.17l-10.52-12.56c-2.89-3.45-2.85-8.49.1-11.89l10.73-12.38c2.46-2.83,3.96-6.37,4.29-10.1l1.45-16.32c.4-4.48,3.99-8.02,8.48-8.34l16.34-1.16c3.74-.27,7.3-1.7,10.17-4.11Z"/>
            <g class="cls-40">
              <path class="cls-11" d="m54.29,14.15l12.56-10.52c3.45-2.89,8.49-2.85,11.89.1l12.38,10.73c2.83,2.46,6.37,3.96,10.1,4.29l16.32,1.45c4.49.4,8.02,3.99,8.34,8.48l1.16,16.34c.27,3.74,1.7,7.3,4.11,10.17l10.52,12.56c2.89,3.45,2.85,8.49-.1,11.89l-10.73,12.38c-2.46,2.83-3.96,6.37-4.29,10.1l-1.45,16.32c-.4,4.48-3.99,8.02-8.48,8.34l-16.34,1.16c-3.74.27-7.3,1.7-10.17,4.11l-12.56,10.52c-3.45,2.89-8.49,2.85-11.89-.1l-12.38-10.73c-2.83-2.46-6.37-3.96-10.1-4.29l-16.32-1.45c-4.48-.4-8.02-3.99-8.34-8.48l-1.16-16.34c-.27-3.74-1.7-7.3-4.11-10.17l-10.52-12.56c-2.89-3.45-2.85-8.49.1-11.89l10.73-12.38c2.46-2.83,3.96-6.37,4.29-10.1l1.45-16.32c.4-4.48,3.99-8.02,8.48-8.34l16.34-1.16c3.74-.27,7.3-1.7,10.17-4.11Z"/>
              <g class="cls-46">
                <circle class="cls-12" cx="68.32" cy="85.65" r="63.56" transform="translate(-37.03 115.74) rotate(-67.36)"/>
                <circle class="cls-18" cx="68.45" cy="85.32" r="62.38" transform="translate(-34.42 122.49) rotate(-71.13)"/>
                <circle class="cls-33" cx="68.59" cy="84.99" r="61.19" transform="translate(-30.88 130.08) rotate(-75.48)"/>
                <circle class="cls-19" cx="68.72" cy="84.65" r="60.01" transform="translate(-26.27 138.19) rotate(-80.34)"/>
                <circle class="cls-36" cx="68.85" cy="84.32" r="58.82" transform="translate(-20.65 146.29) rotate(-85.47)"/>
                <circle class="cls-4" cx="68.98" cy="83.99" r="57.63" transform="translate(-.81 .68) rotate(-.56)"/>
                <circle class="cls-14" cx="69.11" cy="83.66" r="56.45" transform="translate(-7.45 6.76) rotate(-5.31)"/>
                <circle class="cls-32" cx="69.24" cy="83.33" r="55.26" transform="translate(-12.85 12.62) rotate(-9.53)"/>
                <circle class="cls-29" cx="69.38" cy="82.99" r="54.08" transform="translate(-17.07 17.97) rotate(-13.16)"/>
                <circle class="cls-24" cx="69.51" cy="82.66" r="52.89" transform="translate(-20.32 22.7) rotate(-16.21)"/>
                <circle class="cls-26" cx="69.64" cy="82.33" r="51.71" transform="translate(-22.79 26.78) rotate(-18.77)"/>
                <path class="cls-42" d="m116.61,63.07c10.45,25.87-2.05,55.31-27.92,65.77-25.87,10.45-55.31-2.05-65.77-27.92-10.45-25.87,2.05-55.31,27.92-65.77,25.87-10.45,55.31,2.05,65.77,27.92Z"/>
                <path class="cls-7" d="m115.64,63.18c10.21,25.26-2,54.02-27.26,64.22-25.26,10.21-54.02-2-64.22-27.26-10.21-25.26,2-54.02,27.26-64.22,25.26-10.21,54.02,2,64.22,27.26Z"/>
                <path class="cls-9" d="m114.68,63.3c9.96,24.66-1.95,52.72-26.61,62.68-24.66,9.96-52.72-1.95-62.68-26.61-9.96-24.66,1.95-52.72,26.61-62.68,24.66-9.96,52.72,1.95,62.68,26.61Z"/>
                <path class="cls-2" d="m113.71,63.41c9.72,24.05-1.9,51.42-25.95,61.14-24.05,9.72-51.42-1.9-61.14-25.95-9.72-24.05,1.9-51.42,25.95-61.14,24.05-9.72,51.42,1.9,61.14,25.95Z"/>
                <path class="cls-21" d="m112.74,63.52c9.47,23.44-1.85,50.12-25.3,59.59-23.44,9.47-50.12-1.85-59.59-25.29-9.47-23.44,1.85-50.12,25.3-59.59,23.44-9.47,50.12,1.85,59.59,25.29Z"/>
                <path class="cls-23" d="m111.77,63.63c9.23,22.83-1.81,48.82-24.64,58.05-22.83,9.23-48.82-1.81-58.05-24.64-9.23-22.83,1.81-48.82,24.64-58.05,22.83-9.23,48.82,1.81,58.05,24.64Z"/>
              </g>
            </g>
          </g>
          <g class="cls-28">
            <circle class="cls-1" cx="71.89" cy="71.87" r="49.62"/>
            <path class="cls-45" d="m71.89,22.25c-13.95,0-26.53,5.77-35.54,15.03,8.94-8.7,20.97-13.92,34.43-13.92,27.4,0,49.46,22.69,49.46,50.1,0,13.46-5.58,27.1-15.11,35.15,12.25-10.34,16.38-22.79,16.38-36.74,0-27.4-22.22-49.62-49.62-49.62Z"/>
            <path class="cls-39" d="m73.16,120.22c-27.4,0-49.62-22.22-49.62-49.62,0-13.38,5.32-25.49,13.93-34.42-9.36,9.02-15.2,21.67-15.2,35.69,0,27.4,22.22,49.62,49.62,49.62,14.03,0,26.67-5.84,35.69-15.2-8.92,8.61-21.04,13.93-34.42,13.93Z"/>
            <g class="cls-38">
              <circle class="cls-44" cx="74.86" cy="68.9" r="55.13" transform="translate(-5.25 131.63) rotate(-80.69)"/>
              <circle class="cls-22" cx="74.07" cy="69.64" r="54.63" transform="translate(-6.64 131.46) rotate(-80.69)"/>
              <circle class="cls-3" cx="73.29" cy="70.37" r="54.12" transform="translate(-8.02 131.3) rotate(-80.68)"/>
              <circle class="cls-10" cx="72.51" cy="71.11" r="53.62" transform="translate(-9.41 131.13) rotate(-80.67)"/>
              <circle class="cls-6" cx="71.73" cy="71.84" r="53.12" transform="translate(-10.8 130.96) rotate(-80.66)"/>
              <circle class="cls-43" cx="70.94" cy="72.57" r="52.61" transform="translate(-12.19 130.79) rotate(-80.65)"/>
              <circle class="cls-27" cx="70.16" cy="73.31" r="52.11" transform="translate(-13.58 130.61) rotate(-80.64)"/>
              <circle class="cls-25" cx="69.38" cy="74.04" r="51.61" transform="translate(-14.97 130.43) rotate(-80.63)"/>
              <circle class="cls-30" cx="68.6" cy="74.77" r="51.1" transform="translate(-16.37 130.25) rotate(-80.61)"/>
              <circle class="cls-31" cx="67.81" cy="75.51" r="50.6" transform="translate(-17.77 130.05) rotate(-80.58)"/>
              <circle class="cls-15" cx="67.03" cy="76.24" r="50.1" transform="translate(-19.18 129.85) rotate(-80.55)"/>
              <circle class="cls-5" cx="66.25" cy="76.98" r="49.59" transform="translate(-20.6 129.62) rotate(-80.51)"/>
              <circle class="cls-35" cx="65.47" cy="77.71" r="49.09" transform="translate(-22.03 129.36) rotate(-80.44)"/>
              <circle class="cls-20" cx="64.68" cy="78.44" r="48.59" transform="translate(-23.51 129.04) rotate(-80.33)"/>
              <circle class="cls-34" cx="63.9" cy="79.18" r="48.08" transform="translate(-25.06 128.55) rotate(-80.12)"/>
              <circle class="cls-17" cx="63.12" cy="79.91" r="47.58" transform="translate(-26.93 127.45) rotate(-79.53)"/>
              <circle class="cls-13" cx="62.34" cy="80.64" r="47.07"/>
            </g>
          </g>
        </g>
      </g>
    </g>
  </g>
</svg>