<?xml version="1.0" encoding="UTF-8"?>
<svg xmlns="http://www.w3.org/2000/svg" xmlns:xlink="http://www.w3.org/1999/xlink" viewBox="0 0 147.91 151.25">
  <defs>
    <style>
      .cls-1 {
        fill: url(#Degradado_sin_nombre_405);
      }

      .cls-1, .cls-2 {
        opacity: .74;
      }

      .cls-3 {
        fill: url(#Degradado_sin_nombre_403);
      }

      .cls-3, .cls-4 {
        opacity: .78;
      }

      .cls-5 {
        fill: url(#Degradado_sin_nombre_404);
      }

      .cls-5, .cls-6 {
        opacity: .76;
      }

      .cls-7 {
        fill: url(#Degradado_sin_nombre_371);
      }

      .cls-8 {
        fill: url(#Degradado_sin_nombre_397);
      }

      .cls-8, .cls-9 {
        opacity: .89;
      }

      .cls-10 {
        fill: url(#Degradado_sin_nombre_370);
      }

      .cls-11, .cls-12 {
        opacity: .7;
      }

      .cls-13, .cls-12 {
        fill: #fff;
      }

      .cls-14 {
        fill: url(#Degradado_sin_nombre_394);
      }

      .cls-14, .cls-15 {
        opacity: .94;
      }

      .cls-16 {
        fill: url(#Degradado_sin_nombre_372);
      }

      .cls-17 {
        fill: url(#Degradado_sin_nombre_377);
      }

      .cls-17, .cls-18 {
        opacity: .98;
      }

      .cls-19 {
        fill: url(#Degradado_sin_nombre_393);
      }

      .cls-19, .cls-20 {
        opacity: .96;
      }

      .cls-21 {
        fill: url(#Degradado_sin_nombre_401);
      }

      .cls-21, .cls-22 {
        opacity: .81;
      }

      .cls-23 {
        fill: url(#Degradado_sin_nombre_362);
      }

      .cls-24 {
        fill: url(#Degradado_sin_nombre_400);
      }

      .cls-24, .cls-25 {
        opacity: .83;
      }

      .cls-26 {
        isolation: isolate;
      }

      .cls-27 {
        fill: url(#_R_W_h_659);
      }

      .cls-28 {
        fill: url(#Degradado_sin_nombre_367);
      }

      .cls-29 {
        fill: url(#Degradado_sin_nombre_374);
      }

      .cls-6 {
        fill: url(#Degradado_sin_nombre_389);
      }

      .cls-30 {
        fill: url(#Degradado_sin_nombre_398);
      }

      .cls-30, .cls-31 {
        opacity: .87;
      }

      .cls-32 {
        fill: url(#Degradado_sin_nombre_402);
      }

      .cls-32, .cls-33 {
        opacity: .79;
      }

      .cls-9 {
        fill: url(#Degradado_sin_nombre_382);
      }

      .cls-25 {
        fill: url(#Degradado_sin_nombre_385);
      }

      .cls-15 {
        fill: url(#Degradado_sin_nombre_379);
      }

      .cls-34 {
        fill: url(#Degradado_sin_nombre_368);
      }

      .cls-35 {
        fill: url(#Degradado_sin_nombre_375);
      }

      .cls-36 {
        fill: #deecff;
      }

      .cls-37 {
        fill: url(#Degradado_sin_nombre_395);
      }

      .cls-37, .cls-38 {
        opacity: .93;
      }

      .cls-18 {
        fill: url(#Degradado_sin_nombre_392);
      }

      .cls-39 {
        fill: url(#Degradado_sin_nombre_406);
      }

      .cls-39, .cls-40 {
        opacity: .72;
      }

      .cls-41 {
        fill: url(#Degradado_sin_nombre_366);
      }

      .cls-31 {
        fill: url(#Degradado_sin_nombre_383);
      }

      .cls-33 {
        fill: url(#Degradado_sin_nombre_387);
      }

      .cls-42 {
        fill: url(#_R_W_h_195);
      }

      .cls-43 {
        fill: url(#Degradado_sin_nombre_381);
      }

      .cls-43, .cls-44 {
        opacity: .91;
      }

      .cls-45 {
        fill: url(#_R_W_h_178);
      }

      .cls-4 {
        fill: url(#Degradado_sin_nombre_388);
      }

      .cls-46 {
        fill: #e69538;
      }

      .cls-47 {
        fill: url(#Degradado_sin_nombre_365);
      }

      .cls-48, .cls-49 {
        mix-blend-mode: screen;
      }

      .cls-50 {
        fill: url(#Degradado_sin_nombre_399);
      }

      .cls-50, .cls-51 {
        opacity: .85;
      }

      .cls-44 {
        fill: url(#Degradado_sin_nombre_396);
      }

      .cls-52 {
        fill: url(#Degradado_sin_nombre_369);
      }

      .cls-53 {
        clip-path: url(#clippath);
      }

      .cls-54 {
        fill: #b3d2e6;
      }

      .cls-55 {
        fill: url(#Degradado_sin_nombre_373);
      }

      .cls-56 {
        fill: url(#Degradado_sin_nombre_376);
      }

      .cls-57 {
        fill: none;
      }

      .cls-40 {
        fill: url(#Degradado_sin_nombre_391);
      }

      .cls-51 {
        fill: url(#Degradado_sin_nombre_384);
      }

      .cls-22 {
        fill: url(#Degradado_sin_nombre_386);
      }

      .cls-20 {
        fill: url(#Degradado_sin_nombre_378);
      }

      .cls-58 {
        fill: #ffe194;
      }

      .cls-59 {
        fill: url(#Degradado_sin_nombre_364);
      }

      .cls-60 {
        filter: url(#luminosity-noclip);
      }

      .cls-61 {
        mask: url(#mask);
      }

      .cls-62 {
        fill: url(#_R_W_h_1328);
      }

      .cls-49 {
        fill: url(#_R_W_h_1304);
      }

      .cls-2 {
        fill: url(#Degradado_sin_nombre_390);
      }

      .cls-63 {
        mix-blend-mode: multiply;
      }

      .cls-38 {
        fill: url(#Degradado_sin_nombre_380);
      }

      .cls-64 {
        fill: url(#Degradado_sin_nombre_363);
      }
    </style>
    <radialGradient id="_R_W_h_1328" data-name="¥¼©R¦Wº¥¼h 1328" cx="67.74" cy="120.94" fx="67.74" fy="120.94" r="28.92" gradientUnits="userSpaceOnUse">
      <stop offset="0" stop-color="#ffd461"/>
      <stop offset=".23" stop-color="#ffcd5a"/>
      <stop offset=".56" stop-color="#ffba46"/>
      <stop offset=".95" stop-color="#ff9c26"/>
      <stop offset="1" stop-color="#ff9822"/>
    </radialGradient>
    <clipPath id="clippath">
      <path id="SVGID" class="cls-57" d="m95.55,1.5c-23.31,0-42.93,15.61-49.09,36.94-3.54-1.26-7.33-1.98-11.3-1.98C16.57,36.45,1.5,51.52,1.5,70.11s15.07,33.66,33.66,33.66h60.39c28.24,0,51.13-22.89,51.13-51.13S123.79,1.5,95.55,1.5Z"/>
    </clipPath>
    <linearGradient id="_R_W_h_659" data-name="¥¼©R¦Wº¥¼h 659" x1="74.09" y1="8.25" x2="74.09" y2="105.75" gradientUnits="userSpaceOnUse">
      <stop offset="0" stop-color="#edf9ff"/>
      <stop offset=".19" stop-color="#e5f4fc"/>
      <stop offset=".47" stop-color="#d0e6f7"/>
      <stop offset=".82" stop-color="#add1ed"/>
      <stop offset="1" stop-color="#99c4e8"/>
    </linearGradient>
    <radialGradient id="Degradado_sin_nombre_406" data-name="Degradado sin nombre 406" cx="57.74" cy="110.46" fx="57.74" fy="110.46" r="33.26" gradientUnits="userSpaceOnUse">
      <stop offset="0" stop-color="#fffdf6"/>
      <stop offset="1" stop-color="#fff9f2"/>
    </radialGradient>
    <radialGradient id="Degradado_sin_nombre_405" data-name="Degradado sin nombre 405" cx="57.91" cy="110.43" fx="57.91" fy="110.43" r="31.93" gradientUnits="userSpaceOnUse">
      <stop offset="0" stop-color="#fffaee"/>
      <stop offset="1" stop-color="#fff4e6"/>
    </radialGradient>
    <radialGradient id="Degradado_sin_nombre_404" data-name="Degradado sin nombre 404" cx="58.09" cy="110.4" fx="58.09" fy="110.4" r="30.59" gradientUnits="userSpaceOnUse">
      <stop offset="0" stop-color="#fff8e5"/>
      <stop offset="1" stop-color="#ffeed9"/>
    </radialGradient>
    <radialGradient id="Degradado_sin_nombre_403" data-name="Degradado sin nombre 403" cx="58.27" cy="110.37" fx="58.27" fy="110.37" r="29.26" gradientUnits="userSpaceOnUse">
      <stop offset="0" stop-color="#fff5dc"/>
      <stop offset="1" stop-color="#ffe8cd"/>
    </radialGradient>
    <radialGradient id="Degradado_sin_nombre_402" data-name="Degradado sin nombre 402" cx="58.44" cy="110.34" fx="58.44" fy="110.34" r="27.93" gradientUnits="userSpaceOnUse">
      <stop offset="0" stop-color="#fff3d3"/>
      <stop offset="1" stop-color="#ffe3c0"/>
    </radialGradient>
    <radialGradient id="Degradado_sin_nombre_401" data-name="Degradado sin nombre 401" cx="58.62" cy="110.31" fx="58.62" fy="110.31" r="26.59" gradientUnits="userSpaceOnUse">
      <stop offset="0" stop-color="#fff0cb"/>
      <stop offset="1" stop-color="#ffddb4"/>
    </radialGradient>
    <radialGradient id="Degradado_sin_nombre_400" data-name="Degradado sin nombre 400" cx="58.8" cy="110.28" fx="58.8" fy="110.28" r="25.26" gradientUnits="userSpaceOnUse">
      <stop offset="0" stop-color="#ffeec2"/>
      <stop offset="1" stop-color="#ffd7a7"/>
    </radialGradient>
    <radialGradient id="Degradado_sin_nombre_399" data-name="Degradado sin nombre 399" cx="58.98" cy="110.25" fx="58.98" fy="110.25" r="23.93" gradientUnits="userSpaceOnUse">
      <stop offset="0" stop-color="#ffebb9"/>
      <stop offset="1" stop-color="#ffd29b"/>
    </radialGradient>
    <radialGradient id="Degradado_sin_nombre_398" data-name="Degradado sin nombre 398" cx="59.15" cy="110.22" fx="59.15" fy="110.22" r="22.6" gradientUnits="userSpaceOnUse">
      <stop offset="0" stop-color="#ffe9b0"/>
      <stop offset="1" stop-color="#ffcc8e"/>
    </radialGradient>
    <radialGradient id="Degradado_sin_nombre_397" data-name="Degradado sin nombre 397" cx="59.33" cy="110.18" fx="59.33" fy="110.18" r="21.27" gradientUnits="userSpaceOnUse">
      <stop offset="0" stop-color="#ffe6a8"/>
      <stop offset="1" stop-color="#ffc681"/>
    </radialGradient>
    <radialGradient id="Degradado_sin_nombre_396" data-name="Degradado sin nombre 396" cx="59.51" cy="110.15" fx="59.51" fy="110.15" r="19.94" gradientUnits="userSpaceOnUse">
      <stop offset="0" stop-color="#ffe49f"/>
      <stop offset="1" stop-color="#ffc075"/>
    </radialGradient>
    <radialGradient id="Degradado_sin_nombre_395" data-name="Degradado sin nombre 395" cx="59.68" cy="110.12" fx="59.68" fy="110.12" r="18.61" gradientUnits="userSpaceOnUse">
      <stop offset="0" stop-color="#ffe196"/>
      <stop offset="1" stop-color="#ffbb68"/>
    </radialGradient>
    <radialGradient id="Degradado_sin_nombre_394" data-name="Degradado sin nombre 394" cx="59.86" cy="110.09" fx="59.86" fy="110.09" r="17.28" gradientUnits="userSpaceOnUse">
      <stop offset="0" stop-color="#ffdf8d"/>
      <stop offset="1" stop-color="#ffb55c"/>
    </radialGradient>
    <radialGradient id="Degradado_sin_nombre_393" data-name="Degradado sin nombre 393" cx="60.04" cy="110.06" fx="60.04" fy="110.06" r="15.95" gradientUnits="userSpaceOnUse">
      <stop offset="0" stop-color="#ffdc84"/>
      <stop offset="1" stop-color="#ffaf4f"/>
    </radialGradient>
    <radialGradient id="Degradado_sin_nombre_392" data-name="Degradado sin nombre 392" cx="60.22" cy="110.03" fx="60.22" fy="110.03" r="14.63" gradientUnits="userSpaceOnUse">
      <stop offset="0" stop-color="#ffda7c"/>
      <stop offset="1" stop-color="#ffaa43"/>
    </radialGradient>
    <radialGradient id="_R_W_h_195" data-name="¥¼©R¦Wº¥¼h 195" cx="60.39" cy="110" fx="60.39" fy="110" r="13.31" gradientUnits="userSpaceOnUse">
      <stop offset="0" stop-color="#ffd773"/>
      <stop offset="1" stop-color="#ffa436"/>
    </radialGradient>
    <radialGradient id="Degradado_sin_nombre_391" data-name="Degradado sin nombre 391" cx="58.74" cy="109.73" fx="58.74" fy="109.73" r="33.49" gradientUnits="userSpaceOnUse">
      <stop offset="0" stop-color="#100d07"/>
      <stop offset="1" stop-color="#100a03"/>
    </radialGradient>
    <radialGradient id="Degradado_sin_nombre_390" data-name="Degradado sin nombre 390" cx="58.85" cy="109.72" fx="58.85" fy="109.72" r="32.13" gradientUnits="userSpaceOnUse">
      <stop offset="0" stop-color="#201b0e"/>
      <stop offset="1" stop-color="#201507"/>
    </radialGradient>
    <radialGradient id="Degradado_sin_nombre_389" data-name="Degradado sin nombre 389" cx="58.96" cy="109.71" fx="58.96" fy="109.71" r="30.77" gradientUnits="userSpaceOnUse">
      <stop offset="0" stop-color="#302816"/>
      <stop offset="1" stop-color="#301f0a"/>
    </radialGradient>
    <radialGradient id="Degradado_sin_nombre_388" data-name="Degradado sin nombre 388" cx="59.07" cy="109.7" fx="59.07" fy="109.7" r="29.41" gradientUnits="userSpaceOnUse">
      <stop offset="0" stop-color="#40361d"/>
      <stop offset="1" stop-color="#40290e"/>
    </radialGradient>
    <radialGradient id="Degradado_sin_nombre_387" data-name="Degradado sin nombre 387" cx="59.18" cy="109.69" fx="59.18" fy="109.69" r="28.05" gradientUnits="userSpaceOnUse">
      <stop offset="0" stop-color="#504324"/>
      <stop offset="1" stop-color="#503311"/>
    </radialGradient>
    <radialGradient id="Degradado_sin_nombre_386" data-name="Degradado sin nombre 386" cx="59.29" cy="109.68" fx="59.29" fy="109.68" r="26.69" gradientUnits="userSpaceOnUse">
      <stop offset="0" stop-color="#60512b"/>
      <stop offset="1" stop-color="#603e14"/>
    </radialGradient>
    <radialGradient id="Degradado_sin_nombre_385" data-name="Degradado sin nombre 385" cx="59.4" cy="109.66" fx="59.4" fy="109.66" r="25.33" gradientUnits="userSpaceOnUse">
      <stop offset="0" stop-color="#705e32"/>
      <stop offset="1" stop-color="#704818"/>
    </radialGradient>
    <radialGradient id="Degradado_sin_nombre_384" data-name="Degradado sin nombre 384" cx="59.51" cy="109.65" fx="59.51" fy="109.65" r="23.97" gradientUnits="userSpaceOnUse">
      <stop offset="0" stop-color="#806c3a"/>
      <stop offset="1" stop-color="#80521b"/>
    </radialGradient>
    <radialGradient id="Degradado_sin_nombre_383" data-name="Degradado sin nombre 383" cx="59.62" cy="109.64" fx="59.62" fy="109.64" r="22.61" gradientUnits="userSpaceOnUse">
      <stop offset="0" stop-color="#8f7941"/>
      <stop offset="1" stop-color="#8f5c1e"/>
    </radialGradient>
    <radialGradient id="Degradado_sin_nombre_382" data-name="Degradado sin nombre 382" cx="59.73" cy="109.67" fx="59.73" fy="109.67" r="21.26" gradientUnits="userSpaceOnUse">
      <stop offset="0" stop-color="#9f8648"/>
      <stop offset="1" stop-color="#9f6722"/>
    </radialGradient>
    <radialGradient id="Degradado_sin_nombre_381" data-name="Degradado sin nombre 381" cx="59.84" cy="109.72" fx="59.84" fy="109.72" r="19.93" gradientUnits="userSpaceOnUse">
      <stop offset="0" stop-color="#af944f"/>
      <stop offset="1" stop-color="#af7125"/>
    </radialGradient>
    <radialGradient id="Degradado_sin_nombre_380" data-name="Degradado sin nombre 380" cx="59.95" cy="109.78" fx="59.95" fy="109.78" r="18.6" gradientUnits="userSpaceOnUse">
      <stop offset="0" stop-color="#bfa156"/>
      <stop offset="1" stop-color="#bf7b29"/>
    </radialGradient>
    <radialGradient id="Degradado_sin_nombre_379" data-name="Degradado sin nombre 379" cx="60.06" cy="109.83" fx="60.06" fy="109.83" r="17.28" gradientUnits="userSpaceOnUse">
      <stop offset="0" stop-color="#cfaf5d"/>
      <stop offset="1" stop-color="#cf852c"/>
    </radialGradient>
    <radialGradient id="Degradado_sin_nombre_378" data-name="Degradado sin nombre 378" cx="60.17" cy="109.89" fx="60.17" fy="109.89" r="15.95" gradientUnits="userSpaceOnUse">
      <stop offset="0" stop-color="#dfbc65"/>
      <stop offset="1" stop-color="#df902f"/>
    </radialGradient>
    <radialGradient id="Degradado_sin_nombre_377" data-name="Degradado sin nombre 377" cx="60.28" cy="109.94" fx="60.28" fy="109.94" r="14.63" gradientUnits="userSpaceOnUse">
      <stop offset="0" stop-color="#efca6c"/>
      <stop offset="1" stop-color="#ef9a33"/>
    </radialGradient>
    <radialGradient id="_R_W_h_1304" data-name="¥¼©R¦Wº¥¼h 1304" cx="202.18" cy="140.61" fx="202.18" fy="140.61" r="28.75" gradientTransform="translate(-328.79 -8.48) scale(1.95 .78)" gradientUnits="userSpaceOnUse">
      <stop offset=".28" stop-color="#ffb030"/>
      <stop offset=".36" stop-color="#d69428"/>
      <stop offset=".49" stop-color="#96671c"/>
      <stop offset=".62" stop-color="#604212"/>
      <stop offset=".74" stop-color="#36250a"/>
      <stop offset=".84" stop-color="#181104"/>
      <stop offset=".94" stop-color="#060401"/>
      <stop offset="1" stop-color="#000"/>
    </radialGradient>
    <filter id="luminosity-noclip" x="15.55" y="1.51" width="131.14" height="104.99" color-interpolation-filters="sRGB" filterUnits="userSpaceOnUse">
      <feFlood flood-color="#fff" result="bg"/>
      <feBlend in="SourceGraphic" in2="bg"/>
    </filter>
    <mask id="mask" x="15.55" y="1.51" width="131.14" height="104.99" maskUnits="userSpaceOnUse">
      <g class="cls-60">
        <circle class="cls-63" cx="95.55" cy="52.64" r="51.13"/>
      </g>
    </mask>
    <linearGradient id="Degradado_sin_nombre_376" data-name="Degradado sin nombre 376" x1="46.74" y1="99.52" x2="46.74" y2="27.24" gradientUnits="userSpaceOnUse">
      <stop offset="0" stop-color="#fff"/>
      <stop offset="1" stop-color="#fbfcfe"/>
    </linearGradient>
    <linearGradient id="Degradado_sin_nombre_375" data-name="Degradado sin nombre 375" x1="47.07" y1="98.61" x2="47.07" y2="27.97" gradientUnits="userSpaceOnUse">
      <stop offset="0" stop-color="#fff"/>
      <stop offset="1" stop-color="#f7fafc"/>
    </linearGradient>
    <linearGradient id="Degradado_sin_nombre_374" data-name="Degradado sin nombre 374" x1="47.39" y1="97.71" x2="47.39" y2="28.71" gradientUnits="userSpaceOnUse">
      <stop offset="0" stop-color="#fff"/>
      <stop offset="1" stop-color="#f2f7fb"/>
    </linearGradient>
    <linearGradient id="Degradado_sin_nombre_373" data-name="Degradado sin nombre 373" x1="47.72" y1="96.81" x2="47.72" y2="29.44" gradientUnits="userSpaceOnUse">
      <stop offset="0" stop-color="#fff"/>
      <stop offset="1" stop-color="#eef4f9"/>
    </linearGradient>
    <linearGradient id="Degradado_sin_nombre_372" data-name="Degradado sin nombre 372" x1="48.05" y1="95.92" x2="48.05" y2="30.17" gradientUnits="userSpaceOnUse">
      <stop offset="0" stop-color="#fff"/>
      <stop offset="1" stop-color="#eaf2f8"/>
    </linearGradient>
    <linearGradient id="Degradado_sin_nombre_371" data-name="Degradado sin nombre 371" x1="48.38" y1="95.04" x2="48.38" y2="30.91" gradientUnits="userSpaceOnUse">
      <stop offset="0" stop-color="#fff"/>
      <stop offset="1" stop-color="#e6eff6"/>
    </linearGradient>
    <linearGradient id="Degradado_sin_nombre_370" data-name="Degradado sin nombre 370" x1="48.71" y1="94.16" x2="48.71" y2="31.64" gradientUnits="userSpaceOnUse">
      <stop offset="0" stop-color="#fff"/>
      <stop offset="1" stop-color="#e2ecf5"/>
    </linearGradient>
    <linearGradient id="Degradado_sin_nombre_369" data-name="Degradado sin nombre 369" x1="49.04" y1="93.3" x2="49.04" y2="32.37" gradientUnits="userSpaceOnUse">
      <stop offset="0" stop-color="#fff"/>
      <stop offset=".05" stop-color="#fdfdfe"/>
      <stop offset="1" stop-color="#deeaf3"/>
    </linearGradient>
    <linearGradient id="Degradado_sin_nombre_368" data-name="Degradado sin nombre 368" x1="49.38" y1="92.45" x2="49.38" y2="33.11" gradientUnits="userSpaceOnUse">
      <stop offset="0" stop-color="#fff"/>
      <stop offset=".17" stop-color="#f8fafc"/>
      <stop offset="1" stop-color="#d9e7f2"/>
    </linearGradient>
    <linearGradient id="Degradado_sin_nombre_367" data-name="Degradado sin nombre 367" x1="49.73" y1="91.61" x2="49.73" y2="33.7" gradientUnits="userSpaceOnUse">
      <stop offset="0" stop-color="#fff"/>
      <stop offset=".24" stop-color="#f4f7fb"/>
      <stop offset="1" stop-color="#d5e4f1"/>
    </linearGradient>
    <linearGradient id="Degradado_sin_nombre_366" data-name="Degradado sin nombre 366" x1="50.08" y1="90.76" x2="50.08" y2="34.08" gradientUnits="userSpaceOnUse">
      <stop offset="0" stop-color="#fff"/>
      <stop offset=".3" stop-color="#f0f5f9"/>
      <stop offset="1" stop-color="#d1e1ef"/>
    </linearGradient>
    <linearGradient id="Degradado_sin_nombre_365" data-name="Degradado sin nombre 365" x1="50.43" y1="89.94" x2="50.43" y2="34.47" gradientUnits="userSpaceOnUse">
      <stop offset="0" stop-color="#fff"/>
      <stop offset=".35" stop-color="#ecf2f8"/>
      <stop offset="1" stop-color="#cddfee"/>
    </linearGradient>
    <linearGradient id="Degradado_sin_nombre_364" data-name="Degradado sin nombre 364" x1="50.79" y1="89.14" x2="50.79" y2="34.85" gradientUnits="userSpaceOnUse">
      <stop offset="0" stop-color="#fff"/>
      <stop offset=".4" stop-color="#e8f0f6"/>
      <stop offset="1" stop-color="#c9dcec"/>
    </linearGradient>
    <linearGradient id="Degradado_sin_nombre_363" data-name="Degradado sin nombre 363" x1="51.15" y1="88.37" x2="51.15" y2="35.24" gradientUnits="userSpaceOnUse">
      <stop offset="0" stop-color="#fff"/>
      <stop offset=".44" stop-color="#e3edf5"/>
      <stop offset="1" stop-color="#c4d9eb"/>
    </linearGradient>
    <linearGradient id="Degradado_sin_nombre_362" data-name="Degradado sin nombre 362" x1="51.53" y1="87.64" x2="51.53" y2="35.62" gradientUnits="userSpaceOnUse">
      <stop offset="0" stop-color="#fff"/>
      <stop offset=".48" stop-color="#dfeaf3"/>
      <stop offset="1" stop-color="#c0d7e9"/>
    </linearGradient>
    <linearGradient id="_R_W_h_178" data-name="¥¼©R¦Wº¥¼h 178" x1="51.91" y1="86.94" x2="51.91" y2="36.01" gradientUnits="userSpaceOnUse">
      <stop offset="0" stop-color="#fff"/>
      <stop offset=".5" stop-color="#dbe8f2"/>
      <stop offset="1" stop-color="#bcd4e8"/>
    </linearGradient>
  </defs>
  <g class="cls-26">
    <g id="Capa_2" data-name="Capa 2">
      <g id="Main_1" data-name="Main 1">
        <polygon class="cls-58" points="54.58 93.12 37.71 129.29 65.53 129.29 57.08 151.25 95.28 114.12 69.66 114.12 85.21 93.12 54.58 93.12"/>
        <polygon class="cls-46" points="57.19 90.51 40.32 126.68 68.14 126.68 59.69 148.64 97.89 111.51 72.27 111.51 87.82 90.51 57.19 90.51"/>
        <polygon class="cls-62" points="55.83 91.88 38.96 128.04 66.78 128.04 58.33 150 96.53 112.88 70.91 112.88 86.46 91.88 55.83 91.88"/>
        <g>
          <path class="cls-54" d="m94.05,0c-23.31,0-42.93,15.61-49.09,36.94-3.53-1.26-7.33-1.98-11.3-1.98C15.07,34.95,0,50.02,0,68.61s15.07,33.66,33.66,33.66h60.39c28.24,0,51.13-22.89,51.13-51.13S122.28,0,94.05,0Z"/>
          <path class="cls-36" d="m96.78,2.73c-23.31,0-42.94,15.61-49.09,36.94-3.53-1.26-7.33-1.98-11.3-1.98-18.59,0-33.66,15.07-33.66,33.66s15.07,33.66,33.66,33.66h60.39c28.24,0,51.13-22.89,51.13-51.13S125.02,2.73,96.78,2.73Z"/>
          <g class="cls-53">
            <path class="cls-27" d="m95.55,1.5c-23.31,0-42.93,15.61-49.09,36.94-3.54-1.26-7.33-1.98-11.3-1.98C16.57,36.45,1.5,51.52,1.5,70.11s15.07,33.66,33.66,33.66h60.39c28.24,0,51.13-22.89,51.13-51.13S123.79,1.5,95.55,1.5Z"/>
            <g class="cls-63">
              <path class="cls-12" d="m42.04,90.52l-24.62,47.96h51.87l27.31-44.64c2.98-4.87-.51-11.12-6.21-11.15l-35.16-.18c-5.56-.03-10.66,3.07-13.19,8.01Z"/>
              <path class="cls-39" d="m42.88,91.19l-23.66,46.22,49.49.05,26.5-43.14c2.86-4.66-.48-10.66-5.95-10.69l-33.68-.17c-5.35-.03-10.26,2.96-12.7,7.72Z"/>
              <path class="cls-1" d="m43.72,91.85l-22.71,44.48,47.11.11,25.7-41.64c2.74-4.46-.45-10.2-5.68-10.23l-32.21-.16c-5.15-.03-9.87,2.85-12.21,7.44Z"/>
              <path class="cls-5" d="m44.55,92.52l-21.76,42.74,44.74.16,24.89-40.13c2.63-4.25-.42-9.74-5.42-9.77l-30.73-.15c-4.94-.02-9.48,2.74-11.72,7.15Z"/>
              <path class="cls-3" d="m45.39,93.19l-20.81,41,42.36.22,24.09-38.63c2.51-4.05-.39-9.28-5.15-9.31l-29.26-.14c-4.74-.02-9.09,2.63-11.23,6.86Z"/>
              <path class="cls-32" d="m46.23,93.86l-19.86,39.26,39.98.27,23.28-37.13c2.39-3.84-.36-8.82-4.88-8.84l-27.78-.13c-4.54-.02-8.69,2.52-10.74,6.57Z"/>
              <path class="cls-21" d="m47.07,94.53l-18.9,37.52,37.6.32,22.48-35.63c2.28-3.64-.33-8.36-4.62-8.38l-26.31-.11c-4.33-.02-8.3,2.42-10.25,6.28Z"/>
              <path class="cls-24" d="m47.9,95.2l-17.95,35.78,35.22.38,21.67-34.13c2.16-3.43-.3-7.9-4.35-7.92l-24.83-.1c-4.13-.02-7.91,2.31-9.76,5.99Z"/>
              <path class="cls-50" d="m48.74,95.87l-17,34.03,32.84.43,20.87-32.62c2.04-3.23-.27-7.44-4.09-7.46l-23.36-.09c-3.92-.01-7.51,2.2-9.27,5.71Z"/>
              <path class="cls-30" d="m49.58,96.53l-16.05,32.29,30.46.49,20.06-31.12c1.93-3.02-.24-6.98-3.82-7l-21.88-.08c-3.72-.01-7.12,2.09-8.78,5.42Z"/>
              <path class="cls-8" d="m50.41,97.2l-15.09,30.55,28.08.54,19.26-29.62c1.81-2.82-.21-6.53-3.56-6.54l-20.41-.07c-3.51-.01-6.73,1.98-8.28,5.13Z"/>
              <path class="cls-44" d="m51.25,97.87l-14.14,28.81,25.71.6,18.45-28.12c1.69-2.61-.17-6.07-3.29-6.07l-18.93-.06c-3.31,0-6.34,1.87-7.79,4.84Z"/>
              <path class="cls-37" d="m52.09,98.54l-13.19,27.07,23.33.65,17.65-26.62c1.58-2.41-.14-5.61-3.02-5.61l-17.46-.05c-3.11,0-5.94,1.76-7.3,4.55Z"/>
              <path class="cls-14" d="m52.93,99.21l-12.24,25.33,20.95.7,16.84-25.11c1.46-2.2-.11-5.15-2.76-5.15l-15.98-.03c-2.9,0-5.55,1.65-6.81,4.27Z"/>
              <path class="cls-19" d="m53.76,99.88l-11.29,23.59,18.57.76,16.04-23.61c1.34-2-.08-4.69-2.49-4.69l-14.51-.02c-2.7,0-5.16,1.54-6.32,3.98Z"/>
              <path class="cls-18" d="m54.6,100.54l-10.33,21.85,16.19.81,15.23-22.11c1.23-1.79-.05-4.23-2.23-4.23h-13.03c-2.49-.01-4.76,1.42-5.83,3.68Z"/>
              <path class="cls-42" d="m55.44,101.21l-9.38,20.11,13.81.87,14.43-20.61c1.11-1.59-.02-3.77-1.96-3.77h-11.56c-2.29,0-4.37,1.33-5.34,3.4Z"/>
            </g>
            <g class="cls-48">
              <path class="cls-11" d="m42.09,90.09l-23.76,48.04,61.25-1.25,18.63-43.14c2.43-5.64-1.66-11.93-7.79-12l-34.1-.37c-6.03-.07-11.56,3.33-14.23,8.73Z"/>
              <path class="cls-40" d="m42.92,90.78l-22.86,46.29,58.29-1.12,18.37-41.74c2.35-5.38-1.55-11.42-7.43-11.48l-32.69-.35c-5.79-.06-11.11,3.2-13.67,8.4Z"/>
              <path class="cls-2" d="m43.76,91.48l-21.96,44.55,55.32-.99,18.1-40.33c2.27-5.13-1.45-10.91-7.06-10.97l-31.29-.33c-5.56-.06-10.66,3.08-13.12,8.06Z"/>
              <path class="cls-6" d="m44.59,92.17l-21.06,42.8,52.36-.85,17.84-38.92c2.19-4.88-1.35-10.4-6.7-10.45l-29.88-.3c-5.33-.05-10.21,2.95-12.56,7.73Z"/>
              <path class="cls-4" d="m45.42,92.87l-20.16,41.06,49.39-.72,17.58-37.51c2.1-4.62-1.25-9.89-6.34-9.94l-28.47-.28c-5.09-.05-9.76,2.83-12.01,7.4Z"/>
              <path class="cls-33" d="m46.26,93.56l-19.26,39.31,46.43-.59,17.32-36.1c2.02-4.37-1.15-9.38-5.97-9.43l-27.06-.26c-4.86-.05-9.31,2.7-11.45,7.06Z"/>
              <path class="cls-22" d="m47.09,94.26l-18.37,37.56,43.46-.46,17.05-34.69c1.94-4.12-1.04-8.87-5.61-8.91l-25.65-.23c-4.62-.04-8.86,2.58-10.89,6.73Z"/>
              <path class="cls-25" d="m47.93,94.95l-17.47,35.82,40.5-.32,16.79-33.28c1.85-3.86-.94-8.36-5.24-8.4l-24.24-.21c-4.39-.04-8.41,2.45-10.34,6.4Z"/>
              <path class="cls-51" d="m48.76,95.65l-16.57,34.07,37.53-.19,16.53-31.88c1.77-3.61-.84-7.85-4.88-7.88l-22.83-.19c-4.16-.03-7.96,2.33-9.78,6.06Z"/>
              <path class="cls-31" d="m49.6,96.35l-15.67,32.33,34.57-.06,16.26-30.47c1.69-3.36-.74-7.34-4.51-7.37l-21.42-.16c-3.92-.03-7.51,2.2-9.23,5.73Z"/>
              <path class="cls-9" d="m50.43,97.04l-14.77,30.58,31.6.07,16-29.06c1.61-3.1-.64-6.83-4.15-6.85l-20.01-.14c-3.69-.02-7.07,2.08-8.67,5.4Z"/>
              <path class="cls-43" d="m51.27,97.74l-13.87,28.84,28.64.21,15.74-27.65c1.52-2.85-.53-6.32-3.78-6.34l-18.6-.12c-3.46-.02-6.62,1.95-8.12,5.07Z"/>
              <path class="cls-38" d="m52.1,98.43l-12.98,27.09,25.67.34,15.48-26.24c1.44-2.6-.43-5.81-3.42-5.83l-17.19-.09c-3.22-.02-6.17,1.83-7.56,4.73Z"/>
              <path class="cls-15" d="m52.93,99.13l-12.08,25.34,22.71.47,15.21-24.83c1.36-2.35-.33-5.3-3.05-5.31l-15.78-.07c-2.99-.01-5.72,1.7-7.01,4.4Z"/>
              <path class="cls-20" d="m53.77,99.82l-11.18,23.6,19.74.6,14.95-23.42c1.28-2.09-.23-4.79-2.69-4.8l-14.37-.05c-2.76,0-5.27,1.58-6.45,4.07Z"/>
              <path class="cls-17" d="m54.6,100.52l-10.28,21.85,16.78.73,14.69-22.02c1.19-1.84-.13-4.28-2.33-4.28l-12.96-.02c-2.52,0-4.82,1.45-5.89,3.73Z"/>
              <path class="cls-42" d="m55.44,101.21l-9.38,20.11,13.81.87,14.43-20.61c1.11-1.59-.02-3.77-1.96-3.77h-11.56c-2.29,0-4.37,1.33-5.34,3.4Z"/>
            </g>
            <ellipse class="cls-49" cx="64.58" cy="101.56" rx="55.94" ry="22.5"/>
            <g class="cls-61">
              <g class="cls-63">
                <path class="cls-13" d="m54.93,26.82c0,27.32,8.41,57.98,22.35,70.59-1.55,11.73-35.63,16.6-53.11-13.72-12.37-21.45-8.63-43.37-5.75-53.55l36.51-3.32Z"/>
                <path class="cls-56" d="m54.4,27.54c0,27.32,8.11,56.81,22.05,69.42-1.24,11.16-34.23,15.5-51.04-13.92-12.01-21.11-8.4-42.2-5.56-52.53l34.55-2.97Z"/>
                <path class="cls-35" d="m53.87,28.27c0,27.32,7.81,55.64,21.75,68.25-.94,10.59-32.83,14.4-48.96-14.12-11.65-20.76-8.17-41.02-5.37-51.51l32.58-2.63Z"/>
                <path class="cls-29" d="m53.34,28.99c0,27.32,7.51,54.47,21.45,67.08-.64,10.03-31.5,13.33-46.89-14.32-11.34-20.39-7.95-39.85-5.17-50.48l30.61-2.28Z"/>
                <path class="cls-55" d="m52.81,29.72c0,27.32,7.21,53.3,21.15,65.92-.33,9.46-30.12,12.24-44.81-14.52-11-20.04-7.72-38.67-4.98-49.46l28.64-1.93Z"/>
                <path class="cls-16" d="m52.28,30.45c0,27.32,6.91,52.13,20.85,64.75-.03,8.89-28.74,11.15-42.74-14.72-10.65-19.69-7.49-37.5-4.79-48.44l26.67-1.59Z"/>
                <path class="cls-7" d="m51.75,31.17c0,27.32,6.61,50.96,20.55,63.58.28,8.33-27.35,10.06-40.66-14.92-10.3-19.34-7.26-36.32-4.59-47.41l24.71-1.24Z"/>
                <path class="cls-10" d="m51.22,31.9c0,27.32,6.31,49.8,20.25,62.41.58,7.76-25.96,8.96-38.59-15.12-9.95-18.99-7.03-35.14-4.4-46.39l22.74-.9Z"/>
                <path class="cls-52" d="m50.69,32.63c0,27.32,6.01,48.63,19.95,61.24.89,7.19-24.57,7.86-36.51-15.32-9.6-18.64-6.8-33.97-4.2-45.36l20.77-.55Z"/>
                <path class="cls-34" d="m50.16,33.35c0,27.32,5.7,47.46,19.65,60.07,1.19,6.62-23.18,6.76-34.44-15.53-9.25-18.3-6.58-32.79-4.01-44.34l18.8-.2Z"/>
                <path class="cls-28" d="m49.63,34.08c0,27.32,5.4,46.29,19.35,58.9,1.49,6.06-21.78,5.66-32.36-15.73-8.89-17.95-6.35-31.62-3.82-43.32l16.84.14Z"/>
                <path class="cls-41" d="m49.1,34.81c0,27.32,5.1,45.12,19.05,57.73,1.8,5.49-20.37,4.56-30.29-15.93-8.53-17.61-6.12-30.44-3.62-42.29l14.87.49Z"/>
                <path class="cls-47" d="m48.57,35.53c0,27.32,4.8,43.95,18.74,56.56,2.1,4.92-18.97,3.45-28.21-16.13-8.16-17.27-5.89-29.27-3.43-41.27l12.9.83Z"/>
                <path class="cls-59" d="m48.04,36.26c0,27.32,4.5,42.78,18.44,55.39,2.41,4.36-17.55,2.34-26.14-16.33-7.79-16.93-5.66-28.09-3.24-40.25l10.93,1.18Z"/>
                <path class="cls-64" d="m47.51,36.99c0,27.32,4.2,41.61,18.14,54.23,2.71,3.79-16.13,1.23-24.07-16.53-7.41-16.6-5.44-26.91-3.04-39.22l8.96,1.53Z"/>
                <path class="cls-23" d="m46.98,37.71c0,27.32,3.9,40.44,17.84,53.06,3.01,3.22-14.71.12-21.99-16.73s-5.21-25.74-2.85-38.2l7,1.87Z"/>
                <path class="cls-45" d="m46.46,38.44c0,27.32,3.6,39.27,17.54,51.89,3.32,2.66-13.28-1-19.92-16.93-6.64-15.93-4.98-24.56-2.66-37.18l5.03,2.22Z"/>
              </g>
            </g>
          </g>
        </g>
      </g>
    </g>
  </g>
</svg>