<?xml version="1.0" encoding="UTF-8"?>
<svg id="Capa_2" data-name="Capa 2" xmlns="http://www.w3.org/2000/svg" viewBox="0 0 154.26 94.94">
  <defs>
    <style>
      .cls-1 {
        fill: #0a528e;
      }
    </style>
  </defs>
  <g id="Layer_1" data-name="Layer 1">
    <path class="cls-1" d="m118.72,23.2c-1.59,0-3.14.11-4.68.32C105.89,9.45,90.77,0,73.46,0c-22.4,0-41.13,15.81-45.86,36.98-15.34.6-27.6,13.34-27.6,28.97s12.86,29,28.73,29c.52,0,1.04-.02,1.55-.04h12.33l6.17-9.64h-19c-.35.03-.7.04-1.05.04-10.57,0-19.17-8.68-19.17-19.35s8.09-18.93,18.41-19.33l7.33-.29,1.61-7.23c3.82-17.07,19.19-29.46,36.54-29.46,13.24,0,25.64,7.18,32.35,18.75l3.2,5.52,6.28-.83c1.2-.16,2.33-.24,3.44-.24,14.33,0,25.98,11.77,25.98,26.23s-10.81,25.48-24.62,26.19h-.1c-.42.02-.84.04-1.26.04s-.85-.02-1.27-.03h-.22s-16.88-.01-16.88-.01l-5.66,9.64h22.32c.56.03,1.13.04,1.7.04s1.14-.02,1.7-.04h.06c18.81-.93,33.78-16.61,33.78-35.83,0-19.81-15.91-35.87-35.54-35.87Z"/>
  </g>
</svg>