<?xml version="1.0" encoding="UTF-8"?>
<svg id="Capa_2" data-name="Capa 2" xmlns="http://www.w3.org/2000/svg" viewBox="0 0 160.08 131.08">
  <defs>
    <style>
      .cls-1 {
        fill: #0a528e;
      }

      .cls-2 {
        fill: #00bbd4;
      }
    </style>
  </defs>
  <g id="Layer_1" data-name="Layer 1">
    <path class="cls-2" d="m13.56,60.48c1.47.19,2.96.28,4.44.28,3.35,0,6.7-.48,9.94-1.43,2.04-.59,3.97-1.36,5.81-2.28,4.17-7.1,9.9-13.04,16.68-17.46,3.27-7.39,4.06-15.93,1.63-24.27-.69-2.37-1.62-4.64-2.76-6.78,9.19,3.59,16.56,11.3,19.42,21.13.22.78.39,1.55.55,2.32,2.07-.4,4.18-.7,6.33-.86-.22-1.08-.47-2.16-.79-3.24C69.43,9.43,51.48-1.97,32.97.28c6.08,3.64,10.86,9.49,13.01,16.83,4.51,15.45-4.36,31.62-19.81,36.13-9.38,2.74-19.03.54-26.16-5.07.12.49.24.97.39,1.46,2.85,9.77,9.21,17.55,17.3,22.39,2.42-1.37,5.02-2.46,7.76-3.22-4.53-1.85-8.6-4.7-11.88-8.32Z"/>
    <path class="cls-1" d="m124.67,60.25c-1.58,0-3.13.11-4.66.31-8.14-13.88-23.2-23.21-40.46-23.21-22.32,0-40.99,15.61-45.7,36.51-15.29.59-27.5,13.17-27.5,28.6s12.82,28.63,28.63,28.63c.52,0,1.03-.02,1.55-.04h41.33c.56.02,1.13.04,1.7.04s1.13-.02,1.7-.04h41.72c.56.03,1.13.04,1.7.04s1.13-.02,1.69-.04h.06c18.75-.91,33.66-16.4,33.66-35.37,0-19.56-15.86-35.42-35.42-35.42Zm1.36,61.28h-.1c-.42.02-.84.04-1.26.04s-.84-.01-1.26-.03h-.22s-42.11-.01-42.11-.01h-.34c-.4.03-.79.04-1.19.04s-.8-.02-1.19-.03h-.5s-41.59-.01-41.59-.01h-.25c-.35.03-.69.04-1.04.04-10.54,0-19.11-8.57-19.11-19.11s8.06-18.69,18.35-19.08l7.31-.29,1.61-7.13c3.8-16.85,19.12-29.08,36.42-29.08,13.2,0,25.55,7.09,32.24,18.51l3.19,5.45,6.26-.82c1.2-.16,2.32-.23,3.42-.23,14.28,0,25.9,11.62,25.9,25.9,0,13.81-10.77,25.15-24.54,25.86Z"/>
  </g>
</svg>