<?xml version="1.0" encoding="utf-8"?>
<!-- Generator: Adobe Illustrator 27.5.0, SVG Export Plug-In . SVG Version: 6.00 Build 0)  -->
<svg version="1.1" id="Layer_1" xmlns="http://www.w3.org/2000/svg" xmlns:xlink="http://www.w3.org/1999/xlink" x="0px" y="0px"
	 viewBox="0 0 2000 2000" style="enable-background:new 0 0 2000 2000;" xml:space="preserve">
<radialGradient id="SVGID_1_" cx="999.875" cy="1000.5" r="1000" gradientUnits="userSpaceOnUse">
	<stop  offset="0.362" style="stop-color:#FFFFFF"/>
	<stop  offset="1" style="stop-color:#DBDBDB"/>
</radialGradient>
<rect x="-0.125" y="0.5" style="fill:url(#SVGID_1_);" width="2000" height="2000"/>
<rect style="fill:#00BBD4;" width="2000" height="263.364"/>
<polygon style="fill:#0A528E;" points="444.375,277.875 305.438,441 166.5,277.875 166.5,0 444.375,0 "/>
<text transform="matrix(1 0 0 1 543.916 165.6914)" style="fill:#FFFFFF; font-family:'Sora-Bold'; font-size:92.6154px; letter-spacing:-2;">Weather Icons</text>
<text transform="matrix(1 0 0 1 223.916 199.4658)" style="fill:#FFFFFF; font-family:'Sora-Bold'; font-size:145.5349px; letter-spacing:-3;">21</text>
<path style="fill:#FFFFFF;stroke:#D1D1D1;stroke-width:1.5;stroke-miterlimit:10;" d="M1834.503,931.449h-217.435
	c-22.069,0-40.125-18.056-40.125-40.125V701.146c0-22.069,18.056-40.125,40.125-40.125h217.435
	c22.069,0,40.125,18.056,40.125,40.125v190.177C1874.628,913.393,1856.571,931.449,1834.503,931.449z"/>
<path style="fill:#FFFFFF;stroke:#D1D1D1;stroke-width:1.5;stroke-miterlimit:10;" d="M1834.503,610.191h-217.435
	c-22.069,0-40.125-18.056-40.125-40.125V379.889c0-22.069,18.056-40.125,40.125-40.125h217.435
	c22.069,0,40.125,18.056,40.125,40.125v190.177C1874.628,592.135,1856.571,610.191,1834.503,610.191z"/>
<path style="fill:#FFFFFF;stroke:#D1D1D1;stroke-width:1.5;stroke-miterlimit:10;" d="M1834.503,1252.706h-217.435
	c-22.069,0-40.125-18.056-40.125-40.125v-190.177c0-22.069,18.056-40.125,40.125-40.125h217.435
	c22.069,0,40.125,18.056,40.125,40.125v190.177C1874.628,1234.65,1856.571,1252.706,1834.503,1252.706z"/>
<path style="fill:#FFFFFF;stroke:#D1D1D1;stroke-width:1.5;stroke-miterlimit:10;" d="M1829.911,1573.529h-217.435
	c-22.069,0-40.125-18.056-40.125-40.125v-190.177c0-22.069,18.056-40.125,40.125-40.125h217.435
	c22.069,0,40.125,18.056,40.125,40.125v190.177C1870.036,1555.473,1851.98,1573.529,1829.911,1573.529z"/>
<path style="fill:#FFFFFF;stroke:#D1D1D1;stroke-width:1.5;stroke-miterlimit:10;" d="M1834.503,1894.786h-217.435
	c-22.069,0-40.125-18.056-40.125-40.125v-190.177c0-22.069,18.056-40.125,40.125-40.125h217.435
	c22.069,0,40.125,18.056,40.125,40.125v190.177C1874.628,1876.73,1856.571,1894.786,1834.503,1894.786z"/>
<path style="fill:#FFFFFF;stroke:#D1D1D1;stroke-width:1.5;stroke-miterlimit:10;" d="M1479.603,931.449h-217.435
	c-22.069,0-40.125-18.056-40.125-40.125V701.146c0-22.069,18.056-40.125,40.125-40.125h217.435
	c22.069,0,40.125,18.056,40.125,40.125v190.177C1519.728,913.393,1501.672,931.449,1479.603,931.449z"/>
<path style="fill:#FFFFFF;stroke:#D1D1D1;stroke-width:1.5;stroke-miterlimit:10;" d="M1479.603,1252.706h-217.435
	c-22.069,0-40.125-18.056-40.125-40.125v-190.177c0-22.069,18.056-40.125,40.125-40.125h217.435
	c22.069,0,40.125,18.056,40.125,40.125v190.177C1519.728,1234.65,1501.672,1252.706,1479.603,1252.706z"/>
<path style="fill:#FFFFFF;stroke:#D1D1D1;stroke-width:1.5;stroke-miterlimit:10;" d="M1475.011,1573.529h-217.435
	c-22.069,0-40.125-18.056-40.125-40.125v-190.177c0-22.069,18.056-40.125,40.125-40.125h217.435
	c22.069,0,40.125,18.056,40.125,40.125v190.177C1515.136,1555.473,1497.08,1573.529,1475.011,1573.529z"/>
<path style="fill:#FFFFFF;stroke:#D1D1D1;stroke-width:1.5;stroke-miterlimit:10;" d="M1479.603,1894.786h-217.435
	c-22.069,0-40.125-18.056-40.125-40.125v-190.177c0-22.069,18.056-40.125,40.125-40.125h217.435
	c22.069,0,40.125,18.056,40.125,40.125v190.177C1519.728,1876.73,1501.672,1894.786,1479.603,1894.786z"/>
<path style="fill:#FFFFFF;stroke:#D1D1D1;stroke-width:1.5;stroke-miterlimit:10;" d="M1119.767,931.449H902.332
	c-22.069,0-40.125-18.056-40.125-40.125V701.146c0-22.069,18.056-40.125,40.125-40.125h217.435
	c22.069,0,40.125,18.056,40.125,40.125v190.177C1159.892,913.393,1141.836,931.449,1119.767,931.449z"/>
<path style="fill:#FFFFFF;stroke:#D1D1D1;stroke-width:1.5;stroke-miterlimit:10;" d="M1119.767,1252.706H902.332
	c-22.069,0-40.125-18.056-40.125-40.125v-190.177c0-22.069,18.056-40.125,40.125-40.125h217.435
	c22.069,0,40.125,18.056,40.125,40.125v190.177C1159.892,1234.65,1141.836,1252.706,1119.767,1252.706z"/>
<path style="fill:#FFFFFF;stroke:#D1D1D1;stroke-width:1.5;stroke-miterlimit:10;" d="M1115.175,1573.529H897.74
	c-22.069,0-40.125-18.056-40.125-40.125v-190.177c0-22.069,18.056-40.125,40.125-40.125h217.435
	c22.069,0,40.125,18.056,40.125,40.125v190.177C1155.3,1555.473,1137.244,1573.529,1115.175,1573.529z"/>
<path style="fill:#FFFFFF;stroke:#D1D1D1;stroke-width:1.5;stroke-miterlimit:10;" d="M1119.767,1894.786H902.332
	c-22.069,0-40.125-18.056-40.125-40.125v-190.177c0-22.069,18.056-40.125,40.125-40.125h217.435
	c22.069,0,40.125,18.056,40.125,40.125v190.177C1159.892,1876.73,1141.836,1894.786,1119.767,1894.786z"/>
<path style="fill:#FFFFFF;stroke:#D1D1D1;stroke-width:1.5;stroke-miterlimit:10;" d="M755.339,931.449H537.904
	c-22.069,0-40.125-18.056-40.125-40.125V701.146c0-22.069,18.056-40.125,40.125-40.125h217.435
	c22.069,0,40.125,18.056,40.125,40.125v190.177C795.464,913.393,777.408,931.449,755.339,931.449z"/>
<path style="fill:#FFFFFF;stroke:#D1D1D1;stroke-width:1.5;stroke-miterlimit:10;" d="M754.338,1252.706H536.904
	c-22.069,0-40.125-18.056-40.125-40.125v-190.177c0-22.069,18.056-40.125,40.125-40.125h217.435
	c22.069,0,40.125,18.056,40.125,40.125v190.177C794.463,1234.65,776.407,1252.706,754.338,1252.706z"/>
<path style="fill:#FFFFFF;stroke:#D1D1D1;stroke-width:1.5;stroke-miterlimit:10;" d="M750.747,1573.529H533.313
	c-22.069,0-40.125-18.056-40.125-40.125v-190.177c0-22.069,18.056-40.125,40.125-40.125h217.435
	c22.069,0,40.125,18.056,40.125,40.125v190.177C790.872,1555.473,772.816,1573.529,750.747,1573.529z"/>
<path style="fill:#FFFFFF;stroke:#D1D1D1;stroke-width:1.5;stroke-miterlimit:10;" d="M387.524,1573.529H170.089
	c-22.069,0-40.125-18.056-40.125-40.125v-190.177c0-22.069,18.056-40.125,40.125-40.125h217.435
	c22.069,0,40.125,18.056,40.125,40.125v190.177C427.649,1555.473,409.593,1573.529,387.524,1573.529z"/>
<path style="fill:#FFFFFF;stroke:#D1D1D1;stroke-width:1.5;stroke-miterlimit:10;" d="M755.46,1894.786H538.026
	c-22.069,0-40.125-18.056-40.125-40.125v-190.177c0-22.069,18.056-40.125,40.125-40.125H755.46
	c22.069,0,40.125,18.056,40.125,40.125v190.177C795.585,1876.73,777.529,1894.786,755.46,1894.786z"/>
<path style="fill:#FFFFFF;stroke:#D1D1D1;stroke-width:1.5;stroke-miterlimit:10;" d="M387.524,931.449H170.089
	c-22.069,0-40.125-18.056-40.125-40.125V701.146c0-22.069,18.056-40.125,40.125-40.125h217.435
	c22.069,0,40.125,18.056,40.125,40.125v190.177C427.649,913.393,409.593,931.449,387.524,931.449z"/>
<path style="fill:#FFFFFF;stroke:#D1D1D1;stroke-width:1.5;stroke-miterlimit:10;" d="M387.524,1252.706H170.089
	c-22.069,0-40.125-18.056-40.125-40.125v-190.177c0-22.069,18.056-40.125,40.125-40.125h217.435
	c22.069,0,40.125,18.056,40.125,40.125v190.177C427.649,1234.65,409.593,1252.706,387.524,1252.706z"/>
<path style="fill:#FFFFFF;stroke:#D1D1D1;stroke-width:1.5;stroke-miterlimit:10;" d="M387.524,1894.786H170.089
	c-22.069,0-40.125-18.056-40.125-40.125v-190.177c0-22.069,18.056-40.125,40.125-40.125h217.435
	c22.069,0,40.125,18.056,40.125,40.125v190.177C427.649,1876.73,409.593,1894.786,387.524,1894.786z"/>
<rect x="543.916" y="304.248" style="fill:#2BBFE8;" width="88.315" height="6.252"/>
<rect x="657.322" y="304.248" style="fill:#0A528E;" width="88.309" height="6.252"/>
<g id="Layer_1_00000075163837876474281280000002815174393999718335_">
</g>
<g id="Layer_1_00000155140604077693408340000013898925316606588807_">
</g>
<path style="fill:#00BBD4;" d="M278.806,748.971c-18.743,0-33.938,15.194-33.938,33.938s15.194,33.938,33.938,33.938
	c18.743,0,33.938-15.194,33.938-33.938S297.55,748.971,278.806,748.971z M278.806,807.326c-13.464,0-24.418-10.953-24.418-24.418
	c0-13.464,10.954-24.418,24.418-24.418c13.464,0,24.418,10.953,24.418,24.418C303.224,796.373,292.271,807.326,278.806,807.326z"/>
<path style="fill:#0A528E;" d="M278.806,744.73c-2.629,0-4.76-2.131-4.76-4.76v-18.644c0-2.629,2.131-4.76,4.76-4.76
	c2.629,0,4.76,2.131,4.76,4.76v18.644C283.566,742.598,281.435,744.73,278.806,744.73L278.806,744.73z"/>
<path style="fill:#0A528E;" d="M278.806,849.77c-2.629,0-4.76-2.131-4.76-4.76v-18.643c0-2.629,2.131-4.76,4.76-4.76
	c2.629,0,4.76,2.131,4.76,4.76v18.643C283.566,847.639,281.435,849.77,278.806,849.77L278.806,849.77z"/>
<path style="fill:#0A528E;" d="M235.608,787.928h-18.644c-2.629,0-4.76-2.131-4.76-4.76c0-2.629,2.131-4.76,4.76-4.76h18.644
	c2.629,0,4.76,2.131,4.76,4.76C240.368,785.797,238.237,787.928,235.608,787.928L235.608,787.928z"/>
<path style="fill:#0A528E;" d="M340.648,787.928h-18.643c-2.629,0-4.76-2.131-4.76-4.76c0-2.629,2.131-4.76,4.76-4.76h18.643
	c2.629,0,4.76,2.131,4.76,4.76C345.408,785.797,343.277,787.928,340.648,787.928L340.648,787.928z"/>
<path style="fill:#0A528E;" d="M248.26,757.382c-1.218,0-2.437-0.465-3.366-1.395l-13.183-13.183c-1.859-1.859-1.859-4.872,0-6.731
	c1.858-1.859,4.873-1.859,6.731,0l13.183,13.183c1.859,1.859,1.859,4.872,0,6.731C250.697,756.917,249.478,757.382,248.26,757.382
	L248.26,757.382z"/>
<path style="fill:#0A528E;" d="M322.536,831.657c-1.218,0-2.437-0.465-3.366-1.395l-13.183-13.183c-1.859-1.859-1.859-4.872,0-6.731
	c1.858-1.859,4.873-1.859,6.731,0l13.183,13.183c1.859,1.859,1.859,4.872,0,6.731C324.972,831.192,323.753,831.657,322.536,831.657
	L322.536,831.657z"/>
<path style="fill:#0A528E;" d="M235.077,831.657c-1.218,0-2.437-0.465-3.366-1.395c-1.859-1.859-1.859-4.872,0-6.731l13.183-13.183
	c1.858-1.859,4.873-1.859,6.731,0c1.859,1.859,1.859,4.872,0,6.731l-13.183,13.183C237.514,831.192,236.295,831.657,235.077,831.657
	L235.077,831.657z"/>
<path style="fill:#0A528E;" d="M309.352,757.382c-1.218,0-2.437-0.465-3.366-1.395c-1.859-1.859-1.859-4.872,0-6.731l13.183-13.183
	c1.858-1.859,4.873-1.859,6.731,0c1.859,1.859,1.859,4.872,0,6.731l-13.183,13.183C311.789,756.917,310.57,757.382,309.352,757.382
	L309.352,757.382z"/>
<g>
	<g>
		<path style="fill:#00BBD4;" d="M666.344,736.044c-6.414,0-12.343,2.031-17.218,5.463c4.369,0.624,8.613,1.789,12.648,3.444
			c1.474-0.32,3.001-0.498,4.57-0.498c11.171,0,20.382,8.538,21.457,19.431c2.904,0.068,5.734,0.433,8.463,1.068
			C695.698,748.896,682.538,736.044,666.344,736.044z"/>
		<path style="fill:#00BBD4;" d="M666.344,732.299c2.322,0,4.204-1.883,4.204-4.205v-16.466c0-2.321-1.882-4.204-4.204-4.204
			s-4.204,1.883-4.204,4.204v16.466C662.141,730.417,664.022,732.299,666.344,732.299z"/>
		<path style="fill:#00BBD4;" d="M720.962,762.043h-16.466c-2.275,0-4.116,1.81-4.191,4.066c3.184,1.091,6.194,2.555,8.981,4.342
			h11.675c2.321,0,4.204-1.882,4.204-4.204S723.284,762.043,720.962,762.043z"/>
		<path style="fill:#00BBD4;" d="M630.696,724.654c-1.641-1.642-4.304-1.642-5.945,0c-1.642,1.641-1.642,4.303,0,5.945
			l10.754,10.754c2.037-0.233,4.094-0.394,6.191-0.394c0.497,0,0.99,0.032,1.486,0.046c0.704-1.549,0.432-3.433-0.843-4.707
			L630.696,724.654z"/>
		<path style="fill:#00BBD4;" d="M707.937,724.654c-1.641-1.642-4.304-1.642-5.945,0l-11.643,11.643
			c-1.643,1.642-1.643,4.303,0,5.945c0.82,0.821,1.897,1.232,2.972,1.232c1.076,0,2.152-0.411,2.973-1.232l11.643-11.643
			C709.58,728.957,709.58,726.295,707.937,724.654z"/>
	</g>
</g>
<path style="fill:#0A528E;" d="M686.812,770.206c-1.581,0-3.134,0.114-4.661,0.314c-8.135-13.883-23.201-23.215-40.455-23.215
	c-22.322,0-40.987,15.611-45.704,36.508c-15.288,0.593-27.502,13.166-27.502,28.598c0,15.811,12.817,28.628,28.628,28.628
	c0.52,0,1.035-0.016,1.548-0.043H640c0.564,0.02,1.126,0.043,1.696,0.043s1.132-0.023,1.696-0.043h41.724
	c0.563,0.026,1.127,0.043,1.696,0.043c0.568,0,1.133-0.017,1.694-0.043h0.057v-0.001c18.747-0.913,33.665-16.401,33.665-35.373
	C722.228,786.062,706.37,770.206,686.812,770.206z M688.173,831.484l-0.1,0.004c-0.418,0.019-0.838,0.033-1.261,0.033
	c-0.425,0-0.844-0.014-1.264-0.033l-0.216-0.01h-42.11l-0.335,0.013c-0.396,0.014-0.792,0.03-1.192,0.03
	c-0.4,0-0.796-0.016-1.192-0.03L640,831.478h-41.586l-0.251,0.013c-0.346,0.019-0.694,0.03-1.045,0.03
	c-10.536,0-19.108-8.572-19.108-19.108c0-10.303,8.06-18.686,18.351-19.085l7.307-0.284l1.61-7.134
	c3.804-16.852,19.12-29.084,36.418-29.084c13.198,0,25.552,7.091,32.241,18.507l3.191,5.446l6.258-0.82
	c1.199-0.157,2.32-0.233,3.425-0.233c14.279,0,25.896,11.617,25.896,25.897C712.707,819.43,701.936,830.776,688.173,831.484z"/>
<g>
	<g>
		<path style="fill:#00BBD4;" d="M1392.297,742.388c11.892,0,21.564,9.673,21.564,21.565c0,4.019-1.125,7.771-3.046,10.995
			c2.885,0.473,5.67,1.245,8.326,2.279c1.985-4.005,3.13-8.501,3.13-13.274c0-16.554-13.42-29.974-29.973-29.974
			c-12.24,0-22.75,7.347-27.404,17.863c2.901,0.332,5.749,0.912,8.528,1.705C1377.099,746.902,1384.178,742.388,1392.297,742.388z"
			/>
		<path style="fill:#00BBD4;" d="M1392.297,730.234c2.323,0,4.204-1.883,4.204-4.205v-16.466c0-2.321-1.881-4.204-4.204-4.204
			s-4.204,1.883-4.204,4.204v16.466C1388.094,728.352,1389.975,730.234,1392.297,730.234z"/>
		<path style="fill:#00BBD4;" d="M1446.916,759.979h-16.465c-2.323,0-4.205,1.882-4.205,4.204s1.883,4.204,4.205,4.204h16.465
			c2.321,0,4.204-1.882,4.204-4.204S1449.237,759.979,1446.916,759.979z"/>
		<path style="fill:#00BBD4;" d="M1362.347,740.177c0.821,0.821,1.897,1.232,2.972,1.232c1.075,0,2.152-0.411,2.972-1.232
			c1.643-1.642,1.643-4.303,0-5.945l-11.643-11.643c-1.639-1.642-4.303-1.642-5.944,0c-1.642,1.641-1.642,4.303,0,5.945
			L1362.347,740.177z"/>
		<path style="fill:#00BBD4;" d="M1419.276,741.409c1.075,0,2.151-0.411,2.972-1.232l11.643-11.643c1.642-1.642,1.642-4.304,0-5.945
			c-1.641-1.642-4.305-1.642-5.944,0l-11.643,11.643c-1.643,1.642-1.643,4.303,0,5.945
			C1417.124,740.998,1418.2,741.409,1419.276,741.409z"/>
	</g>
</g>
<path style="fill:#0A528E;" d="M1404.038,780.622c-1.58,0-3.133,0.114-4.661,0.314c-8.135-13.883-23.202-23.215-40.454-23.215
	c-22.322,0-40.987,15.611-45.704,36.508c-15.289,0.593-27.504,13.166-27.504,28.598c0,15.811,12.818,28.628,28.628,28.628
	c0.521,0,1.035-0.016,1.548-0.043h41.334c0.564,0.02,1.126,0.043,1.697,0.043c0.569,0,1.131-0.023,1.695-0.043h41.725
	c0.561,0.026,1.125,0.043,1.695,0.043c0.567,0,1.133-0.017,1.695-0.043h0.056v-0.001c18.746-0.913,33.664-16.401,33.664-35.373
	C1439.453,796.478,1423.596,780.622,1404.038,780.622z M1405.398,841.899l-0.099,0.004c-0.418,0.019-0.838,0.033-1.261,0.033
	c-0.425,0-0.844-0.014-1.264-0.033l-0.215-0.01h-42.11l-0.335,0.013c-0.395,0.014-0.79,0.03-1.19,0.03s-0.796-0.016-1.193-0.03
	l-0.504-0.013h-41.587l-0.251,0.013c-0.346,0.019-0.694,0.029-1.044,0.029c-10.536,0-19.108-8.572-19.108-19.108
	c0-10.303,8.061-18.686,18.352-19.085l7.307-0.284l1.608-7.134c3.806-16.852,19.121-29.084,36.419-29.084
	c13.197,0,25.551,7.091,32.24,18.507l3.19,5.446l6.26-0.82c1.199-0.157,2.318-0.233,3.424-0.233
	c14.28,0,25.895,11.617,25.895,25.897C1429.933,829.846,1419.163,841.191,1405.398,841.899z"/>
<path style="fill:#0A528E;" d="M1761.296,758.893c-1.587,0-3.144,0.115-4.678,0.318c-8.161-14.062-23.28-23.514-40.59-23.514
	c-22.398,0-41.127,15.813-45.859,36.979c-15.34,0.6-27.597,13.336-27.597,28.967c0,16.015,12.861,28.997,28.726,28.997
	c0.522,0,1.038-0.015,1.553-0.043h12.326l6.167-9.643h-18.747l-0.251,0.013c-0.347,0.019-0.697,0.03-1.047,0.03
	c-10.572,0-19.173-8.683-19.173-19.355c0-10.437,8.087-18.927,18.414-19.331l7.332-0.287l1.613-7.226
	c3.819-17.069,19.186-29.459,36.543-29.459c13.242,0,25.638,7.183,32.349,18.746l3.201,5.517l6.282-0.831
	c1.204-0.159,2.326-0.236,3.437-0.236c14.328,0,25.982,11.767,25.982,26.231c0,13.986-10.806,25.477-24.617,26.194l-0.101,0.004
	c-0.42,0.019-0.841,0.033-1.264,0.033c-0.426,0-0.848-0.015-1.269-0.033l-0.217-0.01h-16.883l-5.657,9.643h22.325
	c0.563,0.026,1.128,0.043,1.701,0.043c0.569,0,1.136-0.017,1.7-0.043h0.056v-0.002c18.809-0.924,33.779-16.612,33.779-35.829
	C1796.831,774.952,1780.919,758.893,1761.296,758.893z"/>
<polygon style="fill:#00BBD4;" points="1718.73,794.746 1696.323,829.455 1712.58,829.455 1712.58,851.862 1732.351,818.471 
	1718.758,818.471 "/>
<path style="fill:#0A528E;" d="M315.499,1071.848c-1.581,0-3.134,0.114-4.661,0.314c-8.135-13.883-23.201-23.214-40.455-23.214
	c-22.322,0-40.987,15.611-45.704,36.508c-15.288,0.593-27.502,13.166-27.502,28.598c0,15.811,12.817,28.628,28.628,28.628
	c0.52,0,1.035-0.016,1.548-0.043h16.795c0.679-0.899,1.197-1.502,1.41-1.742l6.98-7.778h-25.436l-0.251,0.013
	c-0.346,0.019-0.694,0.03-1.045,0.03c-10.536,0-19.108-8.572-19.108-19.108c0-10.303,8.061-18.686,18.351-19.085l7.307-0.284
	l1.61-7.134c3.804-16.852,19.12-29.084,36.418-29.084c13.198,0,25.552,7.091,32.241,18.507l3.191,5.446l6.259-0.82
	c1.199-0.157,2.32-0.233,3.425-0.233c14.279,0,25.896,11.617,25.896,25.897c0,13.808-10.771,25.153-24.535,25.861l-0.1,0.004
	c-0.418,0.019-0.838,0.033-1.261,0.033c-0.425,0-0.845-0.014-1.264-0.033l-0.216-0.01h-25.182l0.118,9.52h24.848
	c0.562,0.026,1.127,0.043,1.696,0.043c0.568,0,1.133-0.017,1.694-0.043h0.057v-0.001c18.746-0.913,33.665-16.401,33.665-35.373
	C350.915,1087.704,335.058,1071.848,315.499,1071.848z"/>
<path style="fill:#00BBD4;" d="M279.618,1157.325l-0.494-39.576l-26.435,29.456c0,0-16.809,19.005,5.123,27.249
	C279.745,1182.697,279.618,1157.325,279.618,1157.325z"/>
<g>
	<g>
		<path style="fill:#00BBD4;" d="M664.742,1058.819c11.892,0,21.565,9.673,21.565,21.565c0,1.766-0.236,3.473-0.639,5.116
			c2.778,0.627,5.449,1.53,7.987,2.681c0.67-2.49,1.061-5.096,1.061-7.797c0-16.554-13.419-29.973-29.973-29.973
			c-9.808,0-18.489,4.732-23.957,12.015c3.074,0.559,6.078,1.393,8.984,2.472C653.652,1061.143,658.927,1058.819,664.742,1058.819z"
			/>
		<path style="fill:#00BBD4;" d="M664.742,1046.666c2.322,0,4.204-1.883,4.204-4.204v-16.466c0-2.321-1.882-4.204-4.204-4.204
			s-4.204,1.883-4.204,4.204v16.466C660.539,1044.783,662.42,1046.666,664.742,1046.666z"/>
		<path style="fill:#00BBD4;" d="M719.36,1076.41h-16.466c-2.322,0-4.205,1.882-4.205,4.204c0,2.322,1.883,4.204,4.205,4.204h16.466
			c2.321,0,4.204-1.882,4.204-4.204C723.564,1078.292,721.682,1076.41,719.36,1076.41z"/>
		<path style="fill:#00BBD4;" d="M634.792,1056.608c0.82,0.821,1.897,1.232,2.973,1.232c1.075,0,2.152-0.411,2.972-1.232
			c1.642-1.642,1.642-4.303,0-5.945l-11.643-11.643c-1.641-1.642-4.304-1.642-5.945,0c-1.642,1.641-1.642,4.303,0,5.945
			L634.792,1056.608z"/>
		<path style="fill:#00BBD4;" d="M691.72,1057.84c1.076,0,2.152-0.411,2.973-1.232l11.643-11.643c1.642-1.642,1.642-4.304,0-5.945
			c-1.641-1.642-4.304-1.642-5.945,0l-11.643,11.643c-1.643,1.642-1.643,4.303,0,5.945
			C689.568,1057.429,690.645,1057.84,691.72,1057.84z"/>
	</g>
</g>
<path style="fill:#0A528E;" d="M676.474,1090.814c-1.58,0-3.134,0.114-4.661,0.314c-8.135-13.883-23.201-23.215-40.455-23.215
	c-22.322,0-40.987,15.611-45.704,36.508c-15.288,0.593-27.502,13.166-27.502,28.598c0,15.811,12.817,28.628,28.628,28.628
	c0.52,0,1.035-0.016,1.548-0.043h16.795c0.679-0.899,1.198-1.502,1.41-1.742l6.98-7.778h-25.437l-0.251,0.013
	c-0.346,0.019-0.694,0.03-1.045,0.03c-10.536,0-19.107-8.572-19.107-19.108c0-10.303,8.06-18.686,18.351-19.085l7.307-0.284
	l1.61-7.134c3.804-16.852,19.12-29.084,36.418-29.084c13.198,0,25.552,7.091,32.241,18.507l3.191,5.446l6.258-0.82
	c1.199-0.157,2.32-0.233,3.425-0.233c14.28,0,25.896,11.617,25.896,25.897c0,13.808-10.771,25.153-24.535,25.861l-0.1,0.004
	c-0.418,0.019-0.838,0.033-1.261,0.033c-0.424,0-0.844-0.014-1.263-0.033l-0.216-0.01h-25.182l0.118,9.52h24.848
	c0.562,0.026,1.127,0.043,1.696,0.043c0.568,0,1.133-0.017,1.694-0.043h0.057v-0.001c18.746-0.913,33.665-16.401,33.665-35.374
	C711.89,1106.671,696.032,1090.814,676.474,1090.814z"/>
<path style="fill:#00BBD4;" d="M640.593,1176.292l-0.494-39.576l-26.435,29.456c0,0-16.809,19.005,5.123,27.249
	C640.72,1201.664,640.593,1176.292,640.593,1176.292z"/>
<path style="fill:#00BBD4;" d="M987.939,753.595l-0.375-30.028l-20.057,22.348c0,0-12.753,14.42,3.887,20.675
	C988.036,772.846,987.939,753.595,987.939,753.595z"/>
<path style="fill:#0A528E;" d="M997.459,783.762c0,0-35.711,40.376,10.884,57.891c46.597,17.513,46.327-36.391,46.327-36.391
	l-1.049-84.08L997.459,783.762z M1025.265,835.634c0,0-0.001,0-0.002,0c-3.9-0.001-8.466-0.974-13.57-2.891
	c-10-3.759-15.836-8.75-17.348-14.833c-2.574-10.359,6.77-23.909,10.245-27.84l39.817-44.366l0.745,59.677
	C1045.149,806.523,1044.901,835.634,1025.265,835.634z"/>
<path style="fill:#00BBD4;" d="M1354.754,1068.775l-0.375-30.028l-20.057,22.348c0,0-12.754,14.42,3.888,20.675
	C1354.85,1088.025,1354.754,1068.775,1354.754,1068.775z"/>
<path style="fill:#00BBD4;" d="M1318.115,1129.21l-0.375-30.028l-20.057,22.348c0,0-12.754,14.419,3.888,20.675
	C1318.211,1148.46,1318.115,1129.21,1318.115,1129.21z"/>
<path style="fill:#00BBD4;" d="M1443.822,1129.21l-0.375-30.028l-20.057,22.348c0,0-12.754,14.419,3.888,20.675
	C1443.918,1148.46,1443.822,1129.21,1443.822,1129.21z"/>
<path style="fill:#0A528E;" d="M1404.966,1051.832l-56.163,62.58c0,0-35.71,40.376,10.885,57.891
	c46.598,17.513,46.327-36.391,46.327-36.391L1404.966,1051.832z M1376.61,1166.284c0,0-0.002,0-0.003,0
	c-3.9-0.001-8.466-0.974-13.57-2.891c-9.999-3.759-15.836-8.75-17.348-14.833c-2.572-10.359,6.771-23.909,10.245-27.84
	l39.817-44.366l0.745,59.677C1396.493,1137.173,1396.245,1166.284,1376.61,1166.284z"/>
<g>
	<g>
		<path style="fill:#00BBD4;" d="M1744.682,419.052c11.892,0,21.564,9.674,21.564,21.565c0,2.285-0.364,4.486-1.026,6.555
			c2.794,0.545,5.491,1.367,8.057,2.441c0.892-2.84,1.378-5.862,1.378-8.996c0-16.554-13.42-29.973-29.973-29.973
			c-10.433,0-19.614,5.337-24.981,13.424c3.07,0.449,6.079,1.16,8.995,2.125C1732.646,421.82,1738.34,419.052,1744.682,419.052z"/>
		<path style="fill:#00BBD4;" d="M1744.682,406.898c2.323,0,4.204-1.883,4.204-4.205v-16.466c0-2.321-1.881-4.204-4.204-4.204
			c-2.323,0-4.204,1.883-4.204,4.204v16.466C1740.478,405.016,1742.36,406.898,1744.682,406.898z"/>
		<path style="fill:#00BBD4;" d="M1799.3,436.642h-16.465c-2.323,0-4.205,1.882-4.205,4.204c0,2.322,1.883,4.204,4.205,4.204h16.465
			c2.321,0,4.204-1.882,4.204-4.204C1803.504,438.524,1801.621,436.642,1799.3,436.642z"/>
		<path style="fill:#00BBD4;" d="M1714.732,416.841c0.821,0.821,1.897,1.232,2.972,1.232c1.075,0,2.152-0.411,2.972-1.232
			c1.642-1.642,1.642-4.303,0-5.945l-11.643-11.643c-1.639-1.642-4.303-1.642-5.944,0c-1.642,1.641-1.642,4.303,0,5.945
			L1714.732,416.841z"/>
		<path style="fill:#00BBD4;" d="M1771.661,418.072c1.075,0,2.151-0.411,2.972-1.232l11.643-11.643c1.643-1.642,1.643-4.304,0-5.945
			c-1.641-1.642-4.304-1.642-5.944,0l-11.643,11.643c-1.642,1.642-1.642,4.303,0,5.945
			C1769.508,417.662,1770.585,418.072,1771.661,418.072z"/>
	</g>
</g>
<path style="fill:#0A528E;" d="M1757.205,452.738c-1.58,0-3.133,0.114-4.661,0.314c-8.135-13.883-23.202-23.215-40.454-23.215
	c-22.322,0-40.987,15.611-45.704,36.508c-15.289,0.593-27.504,13.166-27.504,28.598c0,15.811,12.817,28.629,28.628,28.629
	c0.521,0,1.035-0.016,1.548-0.043h11.127l6.147-9.52h-17.526l-0.251,0.013c-0.345,0.019-0.694,0.03-1.044,0.03
	c-10.536,0-19.108-8.572-19.108-19.108c0-10.303,8.06-18.686,18.352-19.085l7.307-0.284l1.608-7.134
	c3.806-16.852,19.121-29.084,36.419-29.084c13.197,0,25.551,7.091,32.24,18.507l3.19,5.447l6.26-0.82
	c1.199-0.157,2.318-0.233,3.424-0.233c14.28,0,25.895,11.617,25.895,25.897c0,13.808-10.77,25.153-24.535,25.861l-0.099,0.004
	c-0.418,0.019-0.838,0.033-1.261,0.033c-0.424,0-0.844-0.014-1.264-0.033l-0.215-0.01h-17.982l-5.635,9.52h23.402
	c0.561,0.026,1.125,0.043,1.695,0.043c0.567,0,1.133-0.017,1.695-0.043h0.056v-0.001c18.746-0.913,33.664-16.401,33.664-35.373
	C1792.62,468.594,1776.763,452.738,1757.205,452.738z"/>
<polygon style="fill:#00BBD4;" points="1713.929,488.815 1691.522,523.524 1707.78,523.524 1707.78,545.931 1727.551,512.54 
	1713.957,512.54 "/>
<g>
	<g>
		<path style="fill:#0A528E;" d="M1052.847,1106.219l-21.022-3.212c0.782-2.257,1.227-4.67,1.227-7.193
			c0-2.522-0.445-4.935-1.227-7.192l21.022-3.213c0,0,20.703-3.32,11.022-20.089c-9.683-16.771-22.909-0.501-22.909-0.501
			l-13.295,16.6c-3.169-3.655-7.51-6.256-12.452-7.204l7.724-19.801c0,0,7.478-19.59-11.888-19.59s-11.888,19.59-11.888,19.59
			l7.724,19.801c-4.941,0.947-9.285,3.547-12.453,7.2l-13.293-16.597c0,0-13.228-16.27-22.909,0.5
			c-9.683,16.771,11.021,20.091,11.021,20.091l21.017,3.211c-0.781,2.258-1.227,4.671-1.227,7.194c0,2.523,0.445,4.936,1.227,7.192
			l-21.017,3.213c0,0-20.704,3.32-11.021,20.09c9.681,16.771,22.909,0.5,22.909,0.5l13.292-16.597
			c3.17,3.654,7.513,6.254,12.455,7.201l-7.724,19.801c0,0-7.478,19.59,11.888,19.59s11.888-19.59,11.888-19.59l-7.724-19.801
			c4.94-0.947,9.283-3.548,12.452-7.203l13.295,16.599c0,0,13.226,16.271,22.909-0.5
			C1073.55,1109.539,1052.847,1106.219,1052.847,1106.219z"/>
	</g>
</g>
<path style="fill:#00BBD4;" d="M227.143,1760.846l-0.358-28.692l-19.164,21.354c0,0-12.186,13.778,3.714,19.755
	C227.234,1779.24,227.143,1760.846,227.143,1760.846z"/>
<path style="fill:#00BBD4;" d="M264.302,1693.698l-0.358-28.692l-19.164,21.354c0,0-12.186,13.778,3.714,19.755
	C264.394,1712.092,264.302,1693.698,264.302,1693.698z"/>
<path style="fill:#0A528E;" d="M340.005,1768.469l-20.086-3.069c0.746-2.156,1.172-4.462,1.172-6.873s-0.426-4.716-1.172-6.871
	l20.086-3.071c0,0,19.782-3.173,10.531-19.196c-9.252-16.026-21.89-0.48-21.89-0.48l-12.702,15.861
	c-3.028-3.493-7.178-5.979-11.898-6.883l7.38-18.919c0,0,7.145-18.72-11.359-18.72c-18.504,0-11.359,18.72-11.359,18.72l7.38,18.919
	c-4.721,0.905-8.871,3.389-11.899,6.882l-12.701-15.86c0,0-12.64-15.546-21.89,0.478c-9.252,16.024,10.531,19.197,10.531,19.197
	l20.082,3.069c-0.747,2.156-1.173,4.463-1.173,6.873s0.426,4.716,1.172,6.873l-20.082,3.069c0,0-19.783,3.173-10.531,19.195
	c9.251,16.026,21.89,0.48,21.89,0.48l12.701-15.86c3.028,3.493,7.179,5.977,11.899,6.882l-7.38,18.919c0,0-7.145,18.72,11.359,18.72
	c18.504,0,11.359-18.72,11.359-18.72l-7.38-18.919c4.72-0.905,8.87-3.39,11.898-6.883l12.702,15.861c0,0,12.638,15.546,21.89-0.478
	C359.787,1771.642,340.005,1768.469,340.005,1768.469z"/>
<path style="fill:#0A528E;" d="M1729.958,1129.551l-16.837-2.573c0.626-1.807,0.982-3.74,0.982-5.761
	c0-2.02-0.356-3.953-0.982-5.759l16.837-2.575c0,0,16.583-2.659,8.827-16.091c-7.755-13.432-18.349-0.401-18.349-0.401
	l-10.647,13.295c-2.54-2.927-6.018-5.011-9.976-5.77l6.187-15.86c0,0,5.989-15.691-9.522-15.691c-15.51,0-9.522,15.691-9.522,15.691
	l6.187,15.859c-3.957,0.759-7.438,2.842-9.976,5.769l-10.647-13.294c0,0-10.595-13.032-18.349,0.401
	c-7.755,13.432,8.828,16.091,8.828,16.091l16.833,2.573c-0.626,1.807-0.982,3.74-0.982,5.761c0,2.021,0.356,3.954,0.982,5.761
	l-16.833,2.573c0,0-16.583,2.659-8.828,16.091c7.754,13.432,18.349,0.401,18.349,0.401l10.647-13.293
	c2.538,2.926,6.017,5.01,9.976,5.768l-6.187,15.859c0,0-5.989,15.691,9.522,15.691c15.51,0,9.522-15.691,9.522-15.691l-6.187-15.86
	c3.957-0.759,7.436-2.842,9.974-5.769l10.648,13.295c0,0,10.594,13.032,18.349-0.4
	C1746.541,1132.21,1729.958,1129.551,1729.958,1129.551z"/>
<path style="fill:#00BBD4;" d="M1796.776,1077.123l-9.61-1.468c0.356-1.032,0.561-2.135,0.561-3.289
	c0-1.153-0.203-2.256-0.561-3.288l9.61-1.469c0,0,9.466-1.518,5.039-9.184c-4.427-7.668-10.473-0.229-10.473-0.229l-6.077,7.589
	c-1.449-1.671-3.435-2.86-5.693-3.293l3.531-9.053c0,0,3.418-8.956-5.436-8.956c-8.854,0-5.434,8.956-5.434,8.956l3.531,9.052
	c-2.259,0.433-4.246,1.622-5.694,3.293l-6.077-7.588c0,0-6.048-7.438-10.473,0.229c-4.427,7.667,5.039,9.185,5.039,9.185
	l9.608,1.468c-0.358,1.032-0.561,2.135-0.561,3.289c0,1.153,0.203,2.256,0.561,3.288l-9.608,1.469c0,0-9.466,1.518-5.039,9.185
	c4.425,7.667,10.473,0.228,10.473,0.228l6.077-7.588c1.449,1.67,3.435,2.86,5.694,3.293l-3.531,9.052c0,0-3.42,8.956,5.434,8.956
	c8.854,0,5.436-8.956,5.436-8.956l-3.531-9.052c2.258-0.433,4.244-1.622,5.692-3.293l6.078,7.589c0,0,6.046,7.438,10.473-0.228
	C1806.241,1078.641,1796.776,1077.123,1796.776,1077.123z"/>
<path style="fill:#0A528E;" d="M284.133,1365.918c7.675,8.279,12.374,19.356,12.374,31.535c0,25.632-20.779,46.41-46.408,46.41
	c-15.562,0-29.325-7.668-37.744-19.423c-0.03,0.795-0.06,1.594-0.06,2.397c0,34.104,27.648,61.754,61.752,61.754
	c34.104,0,61.752-27.649,61.752-61.754C335.798,1396.17,313.438,1370.737,284.133,1365.918z M274.046,1479.071
	c-21.253,0-39.582-12.76-47.73-31.021c7.353,3.462,15.462,5.333,23.782,5.333c30.839,0,55.928-25.091,55.928-55.931
	c0-4.475-0.53-8.883-1.56-13.149c13.35,9.514,21.811,25.097,21.811,42.533C326.278,1455.64,302.847,1479.071,274.046,1479.071z"/>
<path style="fill:#0A528E;" d="M1088.743,1426.866c0-19.561-15.857-35.417-35.415-35.417c-1.581,0-3.136,0.115-4.661,0.313
	c-8.135-13.883-23.202-23.214-40.457-23.214c-22.322,0-40.987,15.613-45.704,36.509c-15.287,0.592-27.5,13.166-27.5,28.597
	c0,15.78,12.768,28.573,28.535,28.624c-0.161-0.739-0.265-1.5-0.305-2.276c-0.143-1.302-0.146-3.333,1.413-7.267
	c-0.338,0.019-0.674,0.028-1.015,0.028c-10.536,0-19.108-8.572-19.108-19.108c0-10.302,8.06-18.685,18.349-19.083l7.307-0.285
	l1.611-7.134c3.802-16.852,19.121-29.084,36.416-29.084c13.198,0,25.554,7.092,32.242,18.507l3.192,5.448l6.257-0.821
	c1.199-0.156,2.321-0.233,3.427-0.233c14.277,0,25.895,11.618,25.895,25.897c0,12.376-8.663,22.748-20.368,25.28
	c1.793,4.317,1.805,6.492,1.656,7.856c-0.028,0.524-0.093,1.036-0.175,1.545C1076.532,1458.288,1088.743,1444.022,1088.743,1426.866
	z"/>
<path style="fill:#00BBD4;" d="M977.496,1448.44c0,0-5.065,8.569-4.76,10.813c0,2.629,2.131,4.76,4.76,4.76
	c2.63,0,4.76-2.131,4.76-4.76C982.561,1457.008,977.496,1448.44,977.496,1448.44z"/>
<path style="fill:#00BBD4;" d="M994.684,1448.44c0,0-5.065,8.569-4.76,10.813c0,2.629,2.13,4.76,4.76,4.76
	c2.629,0,4.76-2.131,4.76-4.76C999.75,1457.008,994.684,1448.44,994.684,1448.44z"/>
<path style="fill:#00BBD4;" d="M1011.873,1448.44c0,0-5.064,8.569-4.76,10.813c0,2.629,2.132,4.76,4.76,4.76
	c2.631,0,4.76-2.131,4.76-4.76C1016.94,1457.008,1011.873,1448.44,1011.873,1448.44z"/>
<path style="fill:#00BBD4;" d="M1029.063,1448.44c0,0-5.065,8.569-4.76,10.813c0,2.629,2.131,4.76,4.76,4.76
	c2.63,0,4.76-2.131,4.76-4.76C1034.128,1457.008,1029.063,1448.44,1029.063,1448.44z"/>
<path style="fill:#00BBD4;" d="M1046.252,1448.44c0,0-5.065,8.569-4.76,10.813c0,2.629,2.13,4.76,4.76,4.76
	c2.629,0,4.76-2.131,4.76-4.76C1051.317,1457.008,1046.252,1448.44,1046.252,1448.44z"/>
<path style="fill:#00BBD4;" d="M986.037,1470.388c0,0-5.065,8.569-4.76,10.812c0,2.63,2.13,4.76,4.76,4.76
	c2.629,0,4.76-2.131,4.76-4.76C991.102,1478.957,986.037,1470.388,986.037,1470.388z"/>
<path style="fill:#00BBD4;" d="M1003.225,1470.388c0,0-5.065,8.569-4.76,10.812c0,2.63,2.13,4.76,4.76,4.76
	c2.629,0,4.76-2.131,4.76-4.76C1008.29,1478.957,1003.225,1470.388,1003.225,1470.388z"/>
<path style="fill:#00BBD4;" d="M1020.414,1470.388c0,0-5.064,8.569-4.76,10.812c0,2.63,2.132,4.76,4.76,4.76
	c2.631,0,4.76-2.131,4.76-4.76C1025.48,1478.957,1020.414,1470.388,1020.414,1470.388z"/>
<path style="fill:#00BBD4;" d="M1037.604,1470.388c0,0-5.065,8.569-4.76,10.812c0,2.63,2.13,4.76,4.76,4.76s4.76-2.131,4.76-4.76
	C1042.669,1478.957,1037.604,1470.388,1037.604,1470.388z"/>
<g>
	<g>
		<path style="fill:#00BBD4;" d="M1394.721,1375.706c11.502,0,20.856,8.778,20.856,19.569c0,3.532-1.016,6.839-2.768,9.704
			c2.637,0.762,5.158,1.773,7.536,2.999c2.14-3.792,3.364-8.11,3.364-12.703c0-15.022-12.979-27.2-28.989-27.2
			c-11.598,0-21.577,6.408-26.212,15.642c2.687,0.568,5.311,1.332,7.851,2.286
			C1379.888,1379.878,1386.794,1375.706,1394.721,1375.706z"/>
		<path style="fill:#00BBD4;" d="M1394.721,1364.677c2.246,0,4.066-1.71,4.066-3.816v-14.941c0-2.106-1.819-3.816-4.066-3.816
			c-2.246,0-4.066,1.71-4.066,3.816v14.941C1390.656,1362.968,1392.475,1364.677,1394.721,1364.677z"/>
		<path style="fill:#00BBD4;" d="M1447.545,1391.669h-15.924c-2.246,0-4.067,1.707-4.067,3.813c0,2.108,1.821,3.816,4.067,3.816
			h15.924c2.245,0,4.066-1.708,4.066-3.816C1451.611,1393.376,1449.79,1391.669,1447.545,1391.669z"/>
		<path style="fill:#00BBD4;" d="M1365.755,1373.699c0.794,0.745,1.834,1.118,2.874,1.118c1.04,0,2.082-0.373,2.874-1.118
			c1.589-1.49,1.589-3.905,0-5.394l-11.26-10.566c-1.585-1.49-4.161-1.49-5.749,0c-1.589,1.488-1.589,3.903,0,5.394
			L1365.755,1373.699z"/>
		<path style="fill:#00BBD4;" d="M1420.813,1374.817c1.04,0,2.08-0.373,2.874-1.118l11.26-10.566c1.588-1.49,1.588-3.906,0-5.394
			c-1.587-1.49-4.163-1.49-5.749,0l-11.26,10.566c-1.589,1.489-1.589,3.904,0,5.394
			C1418.732,1374.444,1419.773,1374.817,1420.813,1374.817z"/>
	</g>
</g>
<path style="fill:#0A528E;" d="M1435.194,1441.206c0-17.751-15.337-32.14-34.252-32.14c-1.529,0-3.033,0.104-4.508,0.284
	c-7.868-12.599-22.44-21.067-39.128-21.067c-21.589,0-39.641,14.168-44.203,33.131c-14.785,0.537-26.597,11.948-26.597,25.951
	c0,14.324,12.356,25.936,27.612,25.975c-0.156-0.672-0.27-1.36-0.309-2.066c-0.138-1.181-0.141-3.025,1.367-6.595
	c-0.327,0.017-0.652,0.025-0.982,0.025c-10.19,0-18.481-7.779-18.481-17.34c0-9.349,7.796-16.956,17.746-17.318l7.068-0.259
	l1.558-6.474c3.678-15.293,18.493-26.393,35.22-26.393c12.765,0,24.715,6.436,31.183,16.795l3.087,4.944l6.051-0.745
	c1.16-0.142,2.245-0.211,3.315-0.211c13.808,0,25.045,10.543,25.045,23.501c0,11.231-8.379,20.643-19.699,22.941
	c1.734,3.917,1.746,5.892,1.602,7.129c-0.027,0.475-0.085,0.941-0.165,1.401C1423.385,1469.718,1435.194,1456.773,1435.194,1441.206
	z"/>
<g>
	<g>
		<path style="fill:#00BBD4;" d="M1327.601,1460.783c0,0-4.899,7.776-4.604,9.812c0,2.386,2.061,4.32,4.604,4.32
			c2.543,0,4.604-1.933,4.604-4.32C1332.5,1468.559,1327.601,1460.783,1327.601,1460.783z"/>
		<path style="fill:#00BBD4;" d="M1344.225,1460.783c0,0-4.899,7.776-4.604,9.812c0,2.386,2.061,4.32,4.604,4.32
			c2.543,0,4.604-1.933,4.604-4.32C1349.124,1468.559,1344.225,1460.783,1344.225,1460.783z"/>
		<path style="fill:#00BBD4;" d="M1360.849,1460.783c0,0-4.897,7.776-4.604,9.812c0,2.386,2.062,4.32,4.604,4.32
			c2.545,0,4.604-1.933,4.604-4.32C1365.749,1468.559,1360.849,1460.783,1360.849,1460.783z"/>
		<path style="fill:#00BBD4;" d="M1377.474,1460.783c0,0-4.899,7.776-4.604,9.812c0,2.386,2.061,4.32,4.604,4.32
			c2.543,0,4.604-1.933,4.604-4.32C1382.373,1468.559,1377.474,1460.783,1377.474,1460.783z"/>
		<path style="fill:#00BBD4;" d="M1394.098,1460.783c0,0-4.899,7.776-4.604,9.812c0,2.386,2.061,4.32,4.604,4.32
			c2.543,0,4.604-1.933,4.604-4.32C1398.997,1468.559,1394.098,1460.783,1394.098,1460.783z"/>
		<path style="fill:#00BBD4;" d="M1335.861,1480.701c0,0-4.899,7.776-4.604,9.812c0,2.386,2.061,4.32,4.604,4.32
			c2.543,0,4.604-1.933,4.604-4.32C1340.76,1488.477,1335.861,1480.701,1335.861,1480.701z"/>
		<path style="fill:#00BBD4;" d="M1352.485,1480.701c0,0-4.899,7.776-4.604,9.812c0,2.386,2.061,4.32,4.604,4.32
			c2.543,0,4.604-1.933,4.604-4.32C1357.384,1488.477,1352.485,1480.701,1352.485,1480.701z"/>
		<path style="fill:#00BBD4;" d="M1369.109,1480.701c0,0-4.897,7.776-4.604,9.812c0,2.386,2.062,4.32,4.604,4.32
			c2.545,0,4.604-1.933,4.604-4.32C1374.009,1488.477,1369.109,1480.701,1369.109,1480.701z"/>
		<path style="fill:#00BBD4;" d="M1385.734,1480.701c0,0-4.899,7.776-4.604,9.812c0,2.386,2.061,4.32,4.604,4.32
			c2.543,0,4.604-1.933,4.604-4.32C1390.633,1488.477,1385.734,1480.701,1385.734,1480.701z"/>
	</g>
</g>
<path style="fill:#00BBD4;" d="M1675.43,1412.141c-5.925-1.669-11.259-5-15.359-9.523c1.47,0.188,2.955,0.284,4.443,0.284
	c3.353,0,6.698-0.48,9.942-1.426c4.748-1.385,8.984-3.685,12.579-6.646c0.928-0.922,1.886-1.811,2.879-2.66
	c8.618-8.872,12.371-22.001,8.666-34.699c-0.693-2.371-1.619-4.639-2.761-6.777c9.193,3.592,16.556,11.302,19.425,21.132
	c0.803,2.755,1.184,5.527,1.252,8.268c2.089-0.311,4.219-0.483,6.375-0.548c-0.113-3.149-0.611-6.334-1.534-9.497
	c-5.394-18.482-23.343-29.879-41.854-27.629c6.082,3.64,10.862,9.489,13.005,16.831c4.508,15.447-4.362,31.625-19.809,36.134
	c-9.378,2.736-19.025,0.535-26.165-5.07c0.124,0.486,0.245,0.973,0.386,1.456c3.562,12.21,12.604,21.33,23.665,25.468
	c1.069-0.294,2.157-0.549,3.266-0.742C1674.3,1415.009,1674.843,1413.56,1675.43,1412.141z"/>
<path style="fill:#0A528E;" d="M1689.913,1392.169c-0.993,0.849-1.951,1.739-2.879,2.66
	C1688.048,1393.995,1689.005,1393.104,1689.913,1392.169z"/>
<path style="fill:#0A528E;" d="M1805.057,1444.144c0-19.561-15.857-35.417-35.415-35.417c-1.581,0-3.136,0.115-4.661,0.313
	c-8.135-13.884-23.202-23.215-40.457-23.215c-22.322,0-40.987,15.613-45.704,36.509c-15.287,0.592-27.5,13.166-27.5,28.597
	c0,15.785,12.774,28.58,28.548,28.624c-0.16-0.741-0.277-1.499-0.318-2.276c-0.142-1.302-0.144-3.333,1.413-7.267
	c-0.338,0.019-0.674,0.028-1.015,0.028c-10.536,0-19.108-8.572-19.108-19.108c0-10.302,8.06-18.685,18.349-19.083l7.307-0.285
	l1.612-7.134c3.802-16.852,19.121-29.084,36.416-29.084c13.199,0,25.554,7.092,32.242,18.507l3.192,5.448l6.257-0.821
	c1.199-0.156,2.321-0.233,3.428-0.233c14.277,0,25.895,11.618,25.895,25.897c0,12.376-8.663,22.748-20.368,25.28
	c1.793,4.317,1.805,6.492,1.656,7.856c-0.028,0.524-0.088,1.036-0.17,1.543C1792.848,1475.563,1805.057,1461.298,1805.057,1444.144z
	"/>
<path style="fill:#00BBD4;" d="M1693.81,1465.718c0,0-5.065,8.569-4.76,10.813c0,2.629,2.131,4.76,4.76,4.76s4.76-2.131,4.76-4.76
	C1698.875,1474.286,1693.81,1465.718,1693.81,1465.718z"/>
<path style="fill:#00BBD4;" d="M1710.999,1465.718c0,0-5.065,8.569-4.76,10.813c0,2.629,2.131,4.76,4.76,4.76
	c2.63,0,4.76-2.131,4.76-4.76C1716.064,1474.286,1710.999,1465.718,1710.999,1465.718z"/>
<path style="fill:#00BBD4;" d="M1728.187,1465.718c0,0-5.064,8.569-4.76,10.813c0,2.629,2.132,4.76,4.76,4.76
	c2.631,0,4.76-2.131,4.76-4.76C1733.254,1474.286,1728.187,1465.718,1728.187,1465.718z"/>
<path style="fill:#00BBD4;" d="M1745.377,1465.718c0,0-5.065,8.569-4.76,10.813c0,2.629,2.131,4.76,4.76,4.76s4.76-2.131,4.76-4.76
	C1750.443,1474.286,1745.377,1465.718,1745.377,1465.718z"/>
<path style="fill:#00BBD4;" d="M1762.566,1465.718c0,0-5.065,8.569-4.76,10.813c0,2.629,2.131,4.76,4.76,4.76
	c2.63,0,4.76-2.131,4.76-4.76C1767.631,1474.286,1762.566,1465.718,1762.566,1465.718z"/>
<path style="fill:#00BBD4;" d="M1702.351,1487.666c0,0-5.065,8.569-4.76,10.812c0,2.63,2.131,4.76,4.76,4.76
	c2.63,0,4.76-2.131,4.76-4.76C1707.416,1496.235,1702.351,1487.666,1702.351,1487.666z"/>
<path style="fill:#00BBD4;" d="M1719.539,1487.666c0,0-5.065,8.569-4.76,10.812c0,2.63,2.131,4.76,4.76,4.76
	c2.63,0,4.76-2.131,4.76-4.76C1724.605,1496.235,1719.539,1487.666,1719.539,1487.666z"/>
<path style="fill:#00BBD4;" d="M1736.728,1487.666c0,0-5.064,8.569-4.76,10.812c0,2.63,2.132,4.76,4.76,4.76
	c2.631,0,4.76-2.131,4.76-4.76C1741.795,1496.235,1736.728,1487.666,1736.728,1487.666z"/>
<path style="fill:#00BBD4;" d="M1753.918,1487.666c0,0-5.065,8.569-4.76,10.812c0,2.63,2.131,4.76,4.76,4.76
	c2.63,0,4.76-2.131,4.76-4.76C1758.983,1496.235,1753.918,1487.666,1753.918,1487.666z"/>
<polygon style="fill:#00BBD4;" points="1732.83,1743.439 1710.423,1778.148 1726.68,1778.148 1726.68,1800.557 1746.452,1767.165 
	1732.858,1767.165 "/>
<path style="fill:#00BBD4;" d="M1694.087,1768.606c0,0-5.065,8.569-4.76,10.812c0,2.63,2.131,4.76,4.76,4.76
	c2.63,0,4.76-2.131,4.76-4.76C1699.152,1777.175,1694.087,1768.606,1694.087,1768.606z"/>
<path style="fill:#0A528E;" d="M1808.823,1742.708c0-19.561-15.858-35.417-35.415-35.417c-1.58,0-3.133,0.113-4.661,0.315
	c-8.135-13.884-23.202-23.215-40.454-23.215c-22.322,0-40.987,15.61-45.704,36.508c-15.289,0.594-27.503,13.166-27.503,28.599
	c0,14.499,10.788,26.45,24.769,28.339c0.235-1.896,1.06-4.732,3.37-9.255c-10.309-0.263-18.619-8.713-18.619-19.084
	c0-10.304,8.06-18.687,18.352-19.087l7.307-0.282l1.608-7.134c3.806-16.852,19.121-29.084,36.419-29.084
	c13.197,0,25.551,7.091,32.24,18.507l3.19,5.445l6.26-0.818c1.199-0.158,2.318-0.234,3.424-0.234
	c14.28,0,25.895,11.616,25.895,25.896c0,13.808-10.771,25.153-24.535,25.861l-0.099,0.003c-0.38,0.017-0.759,0.028-1.142,0.031
	c2.333,4.571,3.145,7.414,3.369,9.308C1794.811,1776.154,1808.823,1761.086,1808.823,1742.708z"/>
<path style="fill:#00BBD4;" d="M1762.655,1768.606c0,0-5.065,8.569-4.76,10.812c0,2.63,2.13,4.76,4.76,4.76s4.76-2.131,4.76-4.76
	C1767.72,1777.175,1762.655,1768.606,1762.655,1768.606z"/>
<path style="fill:#00BBD4;" d="M1684.577,1791.182c0,0-5.065,8.569-4.76,10.813c0,2.629,2.13,4.76,4.76,4.76s4.76-2.131,4.76-4.76
	C1689.643,1799.751,1684.577,1791.182,1684.577,1791.182z"/>
<path style="fill:#00BBD4;" d="M1703.597,1791.182c0,0-5.065,8.569-4.76,10.813c0,2.629,2.13,4.76,4.76,4.76s4.76-2.131,4.76-4.76
	C1708.663,1799.751,1703.597,1791.182,1703.597,1791.182z"/>
<path style="fill:#00BBD4;" d="M1752.509,1791.182c0,0-5.064,8.569-4.76,10.813c0,2.629,2.132,4.76,4.76,4.76
	c2.631,0,4.76-2.131,4.76-4.76C1757.576,1799.751,1752.509,1791.182,1752.509,1791.182z"/>
<path style="fill:#00BBD4;" d="M1773.762,1791.182c0,0-5.065,8.569-4.76,10.813c0,2.629,2.13,4.76,4.76,4.76
	c2.629,0,4.76-2.131,4.76-4.76C1778.827,1799.751,1773.762,1791.182,1773.762,1791.182z"/>
<path style="fill:#00BBD4;" d="M576.109,1421.34c1.47,0.188,2.955,0.284,4.442,0.284c3.353,0,6.698-0.48,9.942-1.426
	c2.037-0.595,3.973-1.365,5.811-2.275c4.171-7.097,9.899-13.039,16.685-17.457c3.273-7.391,4.064-15.926,1.628-24.274
	c-0.693-2.371-1.619-4.639-2.761-6.777c9.193,3.592,16.556,11.302,19.424,21.132c0.225,0.775,0.387,1.55,0.552,2.324
	c2.074-0.4,4.18-0.703,6.328-0.859c-0.219-1.083-0.473-2.164-0.788-3.243c-5.394-18.482-23.343-29.879-41.853-27.629
	c6.082,3.64,10.862,9.489,13.005,16.831c4.507,15.447-4.362,31.625-19.809,36.134c-9.378,2.736-19.025,0.535-26.165-5.07
	c0.124,0.486,0.245,0.973,0.386,1.456c2.85,9.765,9.207,17.548,17.296,22.392c2.417-1.368,5.016-2.456,7.757-3.223
	C583.46,1427.807,579.389,1424.958,576.109,1421.34z"/>
<path style="fill:#0A528E;" d="M687.219,1421.103c-1.58,0-3.134,0.115-4.661,0.313c-8.135-13.883-23.201-23.215-40.455-23.215
	c-22.322,0-40.987,15.613-45.704,36.509c-15.288,0.592-27.502,13.166-27.502,28.597c0,15.811,12.817,28.628,28.628,28.628
	c0.52,0,1.035-0.016,1.548-0.042h41.334c0.564,0.02,1.127,0.042,1.696,0.042c0.569,0,1.132-0.022,1.696-0.042h41.724
	c0.562,0.026,1.127,0.042,1.696,0.042c0.568,0,1.133-0.016,1.694-0.042h0.057v-0.001c18.746-0.913,33.665-16.4,33.665-35.373
	C722.635,1436.959,706.777,1421.103,687.219,1421.103z M688.58,1482.38l-0.1,0.005c-0.418,0.019-0.838,0.031-1.261,0.031
	c-0.424,0-0.844-0.012-1.263-0.031l-0.216-0.011h-42.11l-0.335,0.013c-0.396,0.014-0.792,0.029-1.191,0.029
	c-0.4,0-0.796-0.016-1.192-0.029l-0.504-0.013h-41.586l-0.251,0.014c-0.346,0.019-0.694,0.028-1.045,0.028
	c-10.536,0-19.107-8.572-19.107-19.108c0-10.302,8.06-18.685,18.351-19.083l7.307-0.285l1.61-7.134
	c3.804-16.852,19.12-29.084,36.418-29.084c13.198,0,25.552,7.092,32.241,18.507l3.191,5.448l6.258-0.821
	c1.199-0.156,2.32-0.232,3.425-0.232c14.28,0,25.896,11.618,25.896,25.897C713.115,1470.327,702.344,1481.672,688.58,1482.38z"/>
<path style="fill:#0A528E;" d="M725.995,1743.203c0-19.561-15.858-35.417-35.415-35.417c-1.581,0-3.136,0.115-4.661,0.313
	c-8.135-13.884-23.202-23.215-40.457-23.215c-22.322,0-40.987,15.613-45.704,36.509c-15.287,0.592-27.5,13.166-27.5,28.597
	c0,14.751,11.159,26.885,25.493,28.449c-0.49-1.439-0.767-2.977-0.767-4.58c0-1.766,0.338-3.452,0.927-5.016
	c-9.124-1.436-16.133-9.331-16.133-18.853c0-10.303,8.06-18.685,18.349-19.083l7.307-0.285l1.611-7.134
	c3.802-16.852,19.121-29.084,36.416-29.084c13.199,0,25.554,7.092,32.242,18.507l3.192,5.448l6.257-0.821
	c1.199-0.156,2.321-0.232,3.428-0.232c14.277,0,25.895,11.618,25.895,25.897c0,13.226-9.892,24.166-22.82,25.689
	c0.578,1.55,0.91,3.218,0.91,4.968c0,1.601-0.277,3.135-0.765,4.573C711.844,1776.801,725.995,1761.675,725.995,1743.203z"/>
<circle style="fill:#00BBD4;" cx="611.264" cy="1773.86" r="4.76"/>
<circle style="fill:#00BBD4;" cx="628.519" cy="1773.86" r="4.76"/>
<circle style="fill:#00BBD4;" cx="645.774" cy="1773.86" r="4.76"/>
<circle style="fill:#00BBD4;" cx="663.029" cy="1773.86" r="4.76"/>
<circle style="fill:#00BBD4;" cx="680.284" cy="1773.86" r="4.76"/>
<circle style="fill:#00BBD4;" cx="619.891" cy="1790.915" r="4.76"/>
<circle style="fill:#00BBD4;" cx="637.146" cy="1790.915" r="4.76"/>
<circle style="fill:#00BBD4;" cx="654.402" cy="1790.915" r="4.76"/>
<circle style="fill:#00BBD4;" cx="671.657" cy="1790.915" r="4.76"/>
<path style="fill:#00BBD4;" d="M964.611,1731.713c-6.249-1.585-11.884-5.003-16.17-9.732c1.47,0.186,2.955,0.282,4.442,0.282
	c3.353,0,6.698-0.48,9.942-1.426c18.783-5.481,29.605-25.221,24.124-44.006c-0.693-2.369-1.619-4.638-2.761-6.777
	c9.193,3.593,16.556,11.303,19.424,21.133c0.803,2.752,1.184,5.524,1.252,8.263c2.084-0.35,4.214-0.552,6.368-0.655
	c-0.121-3.113-0.616-6.26-1.528-9.385c-5.394-18.482-23.343-29.881-41.853-27.629c6.082,3.64,10.862,9.489,13.005,16.829
	c4.507,15.448-4.362,31.627-19.809,36.134c-9.378,2.736-19.025,0.536-26.165-5.068c0.124,0.485,0.245,0.971,0.386,1.455
	c3.588,12.295,12.734,21.453,23.902,25.548c1.306-0.391,2.633-0.734,4.001-0.973
	C963.601,1734.347,964.083,1733.016,964.611,1731.713z"/>
<path style="fill:#0A528E;" d="M1094.398,1763.355c0-19.561-15.857-35.417-35.415-35.417c-1.581,0-3.136,0.115-4.661,0.313
	c-8.135-13.884-23.202-23.215-40.457-23.215c-22.322,0-40.987,15.613-45.704,36.509c-15.287,0.592-27.5,13.166-27.5,28.597
	c0,14.751,11.159,26.885,25.493,28.449c-0.49-1.439-0.767-2.977-0.767-4.58c0-1.766,0.338-3.452,0.927-5.016
	c-9.124-1.436-16.133-9.331-16.133-18.853c0-10.303,8.06-18.685,18.349-19.083l7.307-0.285l1.611-7.134
	c3.802-16.852,19.121-29.084,36.416-29.084c13.198,0,25.554,7.092,32.242,18.507l3.192,5.448l6.257-0.821
	c1.199-0.156,2.321-0.232,3.427-0.232c14.277,0,25.895,11.618,25.895,25.897c0,13.226-9.892,24.166-22.82,25.689
	c0.578,1.55,0.91,3.218,0.91,4.968c0,1.601-0.277,3.135-0.765,4.573C1080.248,1796.952,1094.398,1781.826,1094.398,1763.355z"/>
<circle style="fill:#00BBD4;" cx="979.667" cy="1794.011" r="4.76"/>
<circle style="fill:#00BBD4;" cx="996.922" cy="1794.011" r="4.76"/>
<circle style="fill:#00BBD4;" cx="1014.177" cy="1794.011" r="4.76"/>
<circle style="fill:#00BBD4;" cx="1031.432" cy="1794.011" r="4.76"/>
<circle style="fill:#00BBD4;" cx="1048.688" cy="1794.011" r="4.76"/>
<circle style="fill:#00BBD4;" cx="988.295" cy="1811.067" r="4.76"/>
<circle style="fill:#00BBD4;" cx="1005.55" cy="1811.067" r="4.76"/>
<circle style="fill:#00BBD4;" cx="1022.805" cy="1811.067" r="4.76"/>
<circle style="fill:#00BBD4;" cx="1040.06" cy="1811.067" r="4.76"/>
<path style="fill:#0A528E;" d="M1451.611,1735.146c0-19.561-15.858-35.417-35.415-35.417c-1.581,0-3.136,0.115-4.661,0.313
	c-8.135-13.883-23.202-23.214-40.457-23.214c-22.322,0-40.987,15.613-45.704,36.509c-15.287,0.592-27.5,13.166-27.5,28.597
	c0,14.751,11.159,26.887,25.494,28.449c-0.49-1.439-0.767-2.977-0.767-4.58c0-1.766,0.338-3.452,0.927-5.016
	c-9.125-1.436-16.133-9.331-16.133-18.853c0-10.303,8.06-18.685,18.349-19.083l7.307-0.285l1.612-7.134
	c3.802-16.852,19.121-29.084,36.416-29.084c13.199,0,25.554,7.092,32.242,18.507l3.192,5.448l6.257-0.821
	c1.199-0.156,2.321-0.233,3.428-0.233c14.277,0,25.895,11.618,25.895,25.897c0,13.225-9.892,24.166-22.819,25.689
	c0.578,1.55,0.91,3.218,0.91,4.968c0,1.601-0.276,3.135-0.764,4.573C1437.461,1768.742,1451.611,1753.617,1451.611,1735.146z"/>
<circle style="fill:#00BBD4;" cx="1336.88" cy="1765.802" r="4.76"/>
<circle style="fill:#00BBD4;" cx="1371.391" cy="1765.802" r="4.76"/>
<circle style="fill:#00BBD4;" cx="1371.391" cy="1798.072" r="4.76"/>
<circle style="fill:#00BBD4;" cx="1405.901" cy="1765.802" r="4.76"/>
<circle style="fill:#00BBD4;" cx="1345.508" cy="1782.858" r="4.76"/>
<circle style="fill:#00BBD4;" cx="1362.763" cy="1782.858" r="4.76"/>
<circle style="fill:#00BBD4;" cx="1380.018" cy="1782.858" r="4.76"/>
<circle style="fill:#00BBD4;" cx="1397.273" cy="1782.858" r="4.76"/>
<path style="fill:#00BBD4;" d="M1354.135,1758.016c0,0-5.067,8.568-4.76,10.812c0,2.629,2.129,4.76,4.76,4.76
	c2.628,0,4.76-2.131,4.76-4.76C1359.199,1766.585,1354.135,1758.016,1354.135,1758.016z"/>
<path style="fill:#00BBD4;" d="M1388.646,1758.016c0,0-5.067,8.568-4.76,10.812c0,2.629,2.129,4.76,4.76,4.76
	c2.628,0,4.76-2.131,4.76-4.76C1393.709,1766.585,1388.646,1758.016,1388.646,1758.016z"/>
<path style="fill:#00BBD4;" d="M1354.135,1788.692c0,0-5.067,8.569-4.76,10.812c0,2.629,2.129,4.76,4.76,4.76
	c2.628,0,4.76-2.131,4.76-4.76C1359.199,1797.26,1354.135,1788.692,1354.135,1788.692z"/>
<path style="fill:#00BBD4;" d="M1388.646,1788.692c0,0-5.067,8.569-4.76,10.812c0,2.629,2.129,4.76,4.76,4.76
	c2.628,0,4.76-2.131,4.76-4.76C1393.709,1797.26,1388.646,1788.692,1388.646,1788.692z"/>
<text transform="matrix(1 0 0 1 233.115 898.875)" style="fill:#0A528E; font-family:'Sora-Bold'; font-size:24px;">Sunny</text>
<text transform="matrix(1 0 0 1 566.4899 898.875)" style="fill:#0A528E; font-family:'Sora-Bold'; font-size:24px;">Partly Cloudy</text>
<text transform="matrix(1 0 0 1 983.6655 898.875)" style="fill:#0A528E; font-family:'Sora-Bold'; font-size:24px;">Rain</text>
<text transform="matrix(1 0 0 1 1329.6515 898.875)" style="fill:#0A528E; font-family:'Sora-Bold'; font-size:24px;">Sunny</text>
<text transform="matrix(1 0 0 1 1688.5398 898.875)" style="fill:#0A528E; font-family:'Sora-Bold'; font-size:24px;">Cloud</text>
<text transform="matrix(1 0 0 1 220.7639 1220.9288)" style="fill:#0A528E; font-family:'Sora-Bold'; font-size:24px;">Cloud</text>
<text transform="matrix(1 0 0 1 561.589 1220.9288)" style="fill:#0A528E; font-family:'Sora-Bold'; font-size:24px;">Sunny Cloudy</text>
<text transform="matrix(1 0 0 1 993.9019 1220.9288)" style="fill:#0A528E; font-family:'Sora-Bold'; font-size:24px;">Air </text>
<text transform="matrix(1 0 0 1 1326.1348 1220.9288)" style="fill:#0A528E; font-family:'Sora-Bold'; font-size:24px;">Raining</text>
<text transform="matrix(1 0 0 1 1716.1931 1220.9288)" style="fill:#0A528E; font-family:'Sora-Bold'; font-size:24px;">Air</text>
<text transform="matrix(1 0 0 1 207.1568 1541.395)" style="fill:#0A528E; font-family:'Sora-Bold'; font-size:24px;">Moon Night</text>
<text transform="matrix(1 0 0 1 562.1519 1541.395)" style="fill:#0A528E; font-family:'Sora-Bold'; font-size:24px;">Cloudy Night</text>
<text transform="matrix(1 0 0 1 983.6416 1541.395)" style="fill:#0A528E; font-family:'Sora-Bold'; font-size:24px;">Rain</text>
<text transform="matrix(1 0 0 1 1297.8738 1541.395)" style="fill:#0A528E; font-family:'Sora-Bold'; font-size:24px;">Rain / Sunny</text>
<text transform="matrix(1 0 0 1 1654.0862 1541.395)" style="fill:#0A528E; font-family:'Sora-Bold'; font-size:24px;">Rainy Night</text>
<text transform="matrix(1 0 0 1 215.15 1859.395)" style="fill:#0A528E; font-family:'Sora-Bold'; font-size:24px;">Storm Rain</text>
<text transform="matrix(1 0 0 1 612.9401 1859.395)" style="fill:#0A528E; font-family:'Sora-Bold'; font-size:24px;">Cloud</text>
<text transform="matrix(1 0 0 1 979.6653 1859.395)" style="fill:#0A528E; font-family:'Sora-Bold'; font-size:24px;">Night</text>
<text transform="matrix(1 0 0 1 1325.8806 1859.395)" style="fill:#0A528E; font-family:'Sora-Bold'; font-size:24px;">Raining</text>
<text transform="matrix(1 0 0 1 1638.5719 1859.395)" style="fill:#0A528E; font-family:'Sora-Bold'; font-size:24px;">Thnuder Storm</text>
<text transform="matrix(1 0 0 1 1644.5717 577.125)" style="fill:#0A528E; font-family:'Sora-Bold'; font-size:24px;">Partly Cloudy</text>
</svg>
