<?xml version="1.0" encoding="UTF-8"?>
<svg id="Capa_2" data-name="Capa 2" xmlns="http://www.w3.org/2000/svg" viewBox="0 0 91.83 123.97">
  <defs>
    <style>
      .cls-1 {
        fill: #0a528e;
      }

      .cls-2 {
        fill: #00bbd4;
      }
    </style>
  </defs>
  <g id="Layer_1" data-name="Layer 1">
    <path class="cls-2" d="m25.1,32.41l-.38-30.03L4.67,24.73s-12.75,14.42,3.89,20.67c16.64,6.26,16.54-12.99,16.54-12.99Z"/>
    <path class="cls-1" d="m34.62,62.58S-1.09,102.96,45.51,120.47c46.6,17.51,46.33-36.39,46.33-36.39L90.78,0l-56.16,62.58Zm27.81,51.87h0c-3.9,0-8.47-.97-13.57-2.89-10-3.76-15.84-8.75-17.35-14.83-2.57-10.36,6.77-23.91,10.24-27.84l39.82-44.37.74,59.68c0,1.14-.25,30.25-19.89,30.25Z"/>
  </g>
</svg>