<?xml version="1.0" encoding="UTF-8"?>
<svg id="Capa_2" data-name="Capa 2" xmlns="http://www.w3.org/2000/svg" viewBox="0 0 123.5 122.67">
  <defs>
    <style>
      .cls-1 {
        fill: #0a528e;
      }
    </style>
  </defs>
  <g id="Layer_1" data-name="Layer 1">
    <path class="cls-1" d="m71.84,0c7.67,8.28,12.37,19.36,12.37,31.54,0,25.63-20.78,46.41-46.41,46.41-15.56,0-29.32-7.67-37.74-19.42-.03.8-.06,1.59-.06,2.4,0,34.1,27.65,61.75,61.75,61.75s61.75-27.65,61.75-61.75c0-30.67-22.36-56.1-51.67-60.92Zm-10.09,113.15c-21.25,0-39.58-12.76-47.73-31.02,7.35,3.46,15.46,5.33,23.78,5.33,30.84,0,55.93-25.09,55.93-55.93,0-4.47-.53-8.88-1.56-13.15,13.35,9.51,21.81,25.1,21.81,42.53,0,28.8-23.43,52.24-52.23,52.24Z"/>
  </g>
</svg>