<?xml version="1.0" encoding="UTF-8"?>
<svg id="Capa_2" data-name="Capa 2" xmlns="http://www.w3.org/2000/svg" viewBox="0 0 156.67 133.61">
  <defs>
    <style>
      .cls-1 {
        fill: #e8d732;
      }

      .cls-2 {
        fill: #0a528e;
      }
    </style>
  </defs>
  <g id="Layer_1" data-name="Layer 1">
    <g>
      <path class="cls-1" d="m97.85,28.62c-6.41,0-12.34,2.03-17.22,5.46,4.37.62,8.61,1.79,12.65,3.44,1.47-.32,3-.5,4.57-.5,11.17,0,20.38,8.54,21.46,19.43,2.9.07,5.73.43,8.46,1.07-.57-16.06-13.73-28.91-29.92-28.91Z"/>
      <path class="cls-1" d="m97.85,24.88c2.32,0,4.2-1.88,4.2-4.21V4.2c0-2.32-1.88-4.2-4.2-4.2s-4.2,1.88-4.2,4.2v16.47c0,2.32,1.88,4.21,4.2,4.21Z"/>
      <path class="cls-1" d="m152.47,54.62h-16.47c-2.28,0-4.12,1.81-4.19,4.07,3.18,1.09,6.19,2.55,8.98,4.34h11.67c2.32,0,4.2-1.88,4.2-4.2s-1.88-4.2-4.2-4.2Z"/>
      <path class="cls-1" d="m62.21,17.23c-1.64-1.64-4.3-1.64-5.95,0-1.64,1.64-1.64,4.3,0,5.95l10.75,10.75c2.04-.23,4.09-.39,6.19-.39.5,0,.99.03,1.49.05.7-1.55.43-3.43-.84-4.71l-11.64-11.64Z"/>
      <path class="cls-1" d="m139.45,17.23c-1.64-1.64-4.3-1.64-5.95,0l-11.64,11.64c-1.64,1.64-1.64,4.3,0,5.95.82.82,1.9,1.23,2.97,1.23s2.15-.41,2.97-1.23l11.64-11.64c1.64-1.64,1.64-4.3,0-5.95Z"/>
    </g>
    <path class="cls-2" d="m118.32,62.78c-1.58,0-3.13.11-4.66.31-8.14-13.88-23.2-23.22-40.46-23.22-22.32,0-40.99,15.61-45.7,36.51-15.29.59-27.5,13.17-27.5,28.6s12.82,28.63,28.63,28.63c.52,0,1.03-.02,1.55-.04h41.33c.56.02,1.13.04,1.7.04s1.13-.02,1.7-.04h41.72c.56.03,1.13.04,1.7.04s1.13-.02,1.69-.04h.06c18.75-.91,33.66-16.4,33.66-35.37,0-19.56-15.86-35.42-35.42-35.42Zm1.36,61.28h-.1c-.42.02-.84.04-1.26.04s-.84-.01-1.26-.03h-.22s-42.11-.01-42.11-.01h-.34c-.4.03-.79.04-1.19.04s-.8-.02-1.19-.03h-.5s-41.59-.01-41.59-.01h-.25c-.35.03-.69.04-1.04.04-10.54,0-19.11-8.57-19.11-19.11s8.06-18.69,18.35-19.09l7.31-.28,1.61-7.13c3.8-16.85,19.12-29.08,36.42-29.08,13.2,0,25.55,7.09,32.24,18.51l3.19,5.45,6.26-.82c1.2-.16,2.32-.23,3.42-.23,14.28,0,25.9,11.62,25.9,25.9,0,13.81-10.77,25.15-24.53,25.86Z"/>
  </g>
</svg>