<?xml version="1.0" encoding="UTF-8"?>
<svg id="Capa_2" data-name="Capa 2" xmlns="http://www.w3.org/2000/svg" viewBox="0 0 150.81 137.06">
  <defs>
    <style>
      .cls-1 {
        fill: #0a528e;
      }

      .cls-2 {
        fill: #00bbd4;
      }
    </style>
  </defs>
  <g id="Layer_1" data-name="Layer 1">
    <path class="cls-2" d="m61.74,30.03l-.38-30.03-20.06,22.35s-12.75,14.42,3.89,20.68c16.64,6.25,16.54-13,16.54-13Z"/>
    <path class="cls-2" d="m25.1,90.46l-.38-30.03-20.06,22.35s-12.75,14.42,3.89,20.68c16.64,6.25,16.54-13,16.54-13Z"/>
    <path class="cls-2" d="m150.81,90.46l-.38-30.03-20.06,22.35s-12.75,14.42,3.89,20.68c16.64,6.25,16.54-13,16.54-13Z"/>
    <path class="cls-1" d="m111.95,13.08l-56.16,62.58s-35.71,40.38,10.89,57.89c46.6,17.51,46.33-36.39,46.33-36.39l-1.05-84.08Zm-28.36,114.45h0c-3.9,0-8.47-.97-13.57-2.89-10-3.76-15.84-8.75-17.35-14.83-2.57-10.36,6.77-23.91,10.24-27.84l39.82-44.37.74,59.68c0,1.14-.25,30.25-19.89,30.25Z"/>
  </g>
</svg>