<?xml version="1.0" encoding="UTF-8"?>
<svg id="Capa_2" data-name="Capa 2" xmlns="http://www.w3.org/2000/svg" viewBox="0 0 133.2 133.2">
  <defs>
    <style>
      .cls-1 {
        fill: #e8d732;
      }
    </style>
  </defs>
  <g id="Layer_1" data-name="Layer 1">
    <path class="cls-1" d="m66.6,32.41c-18.74,0-33.94,15.19-33.94,33.94s15.19,33.94,33.94,33.94,33.94-15.19,33.94-33.94-15.19-33.94-33.94-33.94Zm0,58.35c-13.46,0-24.42-10.95-24.42-24.42s10.95-24.42,24.42-24.42,24.42,10.95,24.42,24.42-10.95,24.42-24.42,24.42Z"/>
    <path class="cls-1" d="m66.6,28.16c-2.63,0-4.76-2.13-4.76-4.76V4.76c0-2.63,2.13-4.76,4.76-4.76s4.76,2.13,4.76,4.76v18.64c0,2.63-2.13,4.76-4.76,4.76h0Z"/>
    <path class="cls-1" d="m66.6,133.2c-2.63,0-4.76-2.13-4.76-4.76v-18.64c0-2.63,2.13-4.76,4.76-4.76s4.76,2.13,4.76,4.76v18.64c0,2.63-2.13,4.76-4.76,4.76h0Z"/>
    <path class="cls-1" d="m23.4,71.36H4.76c-2.63,0-4.76-2.13-4.76-4.76s2.13-4.76,4.76-4.76h18.64c2.63,0,4.76,2.13,4.76,4.76s-2.13,4.76-4.76,4.76h0Z"/>
    <path class="cls-1" d="m128.44,71.36h-18.64c-2.63,0-4.76-2.13-4.76-4.76s2.13-4.76,4.76-4.76h18.64c2.63,0,4.76,2.13,4.76,4.76,0,2.63-2.13,4.76-4.76,4.76h0Z"/>
    <path class="cls-1" d="m36.06,40.82c-1.22,0-2.44-.47-3.37-1.4l-13.18-13.18c-1.86-1.86-1.86-4.87,0-6.73,1.86-1.86,4.87-1.86,6.73,0l13.18,13.18c1.86,1.86,1.86,4.87,0,6.73-.93.93-2.15,1.4-3.37,1.4h0Z"/>
    <path class="cls-1" d="m110.33,115.09c-1.22,0-2.44-.47-3.37-1.4l-13.18-13.18c-1.86-1.86-1.86-4.87,0-6.73,1.86-1.86,4.87-1.86,6.73,0l13.18,13.18c1.86,1.86,1.86,4.87,0,6.73-.93.93-2.15,1.4-3.36,1.4h0Z"/>
    <path class="cls-1" d="m22.87,115.09c-1.22,0-2.44-.47-3.37-1.4-1.86-1.86-1.86-4.87,0-6.73l13.18-13.18c1.86-1.86,4.87-1.86,6.73,0,1.86,1.86,1.86,4.87,0,6.73l-13.18,13.18c-.93.93-2.15,1.4-3.37,1.4h0Z"/>
    <path class="cls-1" d="m97.15,40.82c-1.22,0-2.44-.47-3.37-1.4-1.86-1.86-1.86-4.87,0-6.73l13.18-13.18c1.86-1.86,4.87-1.86,6.73,0,1.86,1.86,1.86,4.87,0,6.73l-13.18,13.18c-.93.93-2.15,1.4-3.36,1.4h0Z"/>
  </g>
</svg>